<svg xmlns="http://www.w3.org/2000/svg" viewBox="0 0 2000 1000">
        <rect width="100%" height="100%" fill="none" stroke="#000000" stroke-width="200" opacity="0.3" />
        <rect x="20" y="20" width="60" height="60" fill="none" stroke="#ffffff" stroke-width="4" opacity="0.6"/>
<rect x="20" y="920" width="60" height="60" fill="none" stroke="#ffffff" stroke-width="4" opacity="0.6"/>
<rect x="120" y="20" width="60" height="60" fill="none" stroke="#ffffff" stroke-width="4" opacity="0.6"/>
<rect x="120" y="920" width="60" height="60" fill="none" stroke="#ffffff" stroke-width="4" opacity="0.6"/>
<rect x="220" y="20" width="60" height="60" fill="none" stroke="#ffffff" stroke-width="4" opacity="0.6"/>
<rect x="220" y="920" width="60" height="60" fill="none" stroke="#ffffff" stroke-width="4" opacity="0.6"/>
<rect x="320" y="20" width="60" height="60" fill="none" stroke="#ffffff" stroke-width="4" opacity="0.6"/>
<rect x="320" y="920" width="60" height="60" fill="none" stroke="#ffffff" stroke-width="4" opacity="0.6"/>
<rect x="420" y="20" width="60" height="60" fill="none" stroke="#ffffff" stroke-width="4" opacity="0.6"/>
<rect x="420" y="920" width="60" height="60" fill="none" stroke="#ffffff" stroke-width="4" opacity="0.6"/>
<rect x="520" y="20" width="60" height="60" fill="none" stroke="#ffffff" stroke-width="4" opacity="0.6"/>
<rect x="520" y="920" width="60" height="60" fill="none" stroke="#ffffff" stroke-width="4" opacity="0.6"/>
<rect x="620" y="20" width="60" height="60" fill="none" stroke="#ffffff" stroke-width="4" opacity="0.6"/>
<rect x="620" y="920" width="60" height="60" fill="none" stroke="#ffffff" stroke-width="4" opacity="0.6"/>
<rect x="720" y="20" width="60" height="60" fill="none" stroke="#ffffff" stroke-width="4" opacity="0.6"/>
<rect x="720" y="920" width="60" height="60" fill="none" stroke="#ffffff" stroke-width="4" opacity="0.6"/>
<rect x="820" y="20" width="60" height="60" fill="none" stroke="#ffffff" stroke-width="4" opacity="0.6"/>
<rect x="820" y="920" width="60" height="60" fill="none" stroke="#ffffff" stroke-width="4" opacity="0.6"/>
<rect x="920" y="20" width="60" height="60" fill="none" stroke="#ffffff" stroke-width="4" opacity="0.6"/>
<rect x="920" y="920" width="60" height="60" fill="none" stroke="#ffffff" stroke-width="4" opacity="0.6"/>
<rect x="1020" y="20" width="60" height="60" fill="none" stroke="#ffffff" stroke-width="4" opacity="0.6"/>
<rect x="1020" y="920" width="60" height="60" fill="none" stroke="#ffffff" stroke-width="4" opacity="0.6"/>
<rect x="1120" y="20" width="60" height="60" fill="none" stroke="#ffffff" stroke-width="4" opacity="0.6"/>
<rect x="1120" y="920" width="60" height="60" fill="none" stroke="#ffffff" stroke-width="4" opacity="0.6"/>
<rect x="1220" y="20" width="60" height="60" fill="none" stroke="#ffffff" stroke-width="4" opacity="0.6"/>
<rect x="1220" y="920" width="60" height="60" fill="none" stroke="#ffffff" stroke-width="4" opacity="0.6"/>
<rect x="1320" y="20" width="60" height="60" fill="none" stroke="#ffffff" stroke-width="4" opacity="0.6"/>
<rect x="1320" y="920" width="60" height="60" fill="none" stroke="#ffffff" stroke-width="4" opacity="0.6"/>
<rect x="1420" y="20" width="60" height="60" fill="none" stroke="#ffffff" stroke-width="4" opacity="0.6"/>
<rect x="1420" y="920" width="60" height="60" fill="none" stroke="#ffffff" stroke-width="4" opacity="0.6"/>
<rect x="1520" y="20" width="60" height="60" fill="none" stroke="#ffffff" stroke-width="4" opacity="0.6"/>
<rect x="1520" y="920" width="60" height="60" fill="none" stroke="#ffffff" stroke-width="4" opacity="0.6"/>
<rect x="1620" y="20" width="60" height="60" fill="none" stroke="#ffffff" stroke-width="4" opacity="0.6"/>
<rect x="1620" y="920" width="60" height="60" fill="none" stroke="#ffffff" stroke-width="4" opacity="0.6"/>
<rect x="1720" y="20" width="60" height="60" fill="none" stroke="#ffffff" stroke-width="4" opacity="0.6"/>
<rect x="1720" y="920" width="60" height="60" fill="none" stroke="#ffffff" stroke-width="4" opacity="0.6"/>
<rect x="1820" y="20" width="60" height="60" fill="none" stroke="#ffffff" stroke-width="4" opacity="0.6"/>
<rect x="1820" y="920" width="60" height="60" fill="none" stroke="#ffffff" stroke-width="4" opacity="0.6"/>
<rect x="1920" y="20" width="60" height="60" fill="none" stroke="#ffffff" stroke-width="4" opacity="0.6"/>
<rect x="1920" y="920" width="60" height="60" fill="none" stroke="#ffffff" stroke-width="4" opacity="0.6"/>

      </svg>