<svg xmlns="http://www.w3.org/2000/svg" viewBox="0 0 2000 2000">
       <defs>
         <radialGradient id="bokehGrad47">
             <stop offset="0%" stop-color="#ffffff" stop-opacity="1"/>
             <stop offset="100%" stop-color="#ffffff" stop-opacity="0"/>
         </radialGradient>
       </defs>
       <circle cx="1544.871440586096" cy="1522.2206623180937" r="86.28788901397621" fill="#ffffff" fill-opacity="0.21508548543070702" />
<circle cx="856.8424315820067" cy="415.8423864101639" r="87.09694557396494" fill="#ffffff" fill-opacity="0.5498246400039823" />
<circle cx="287.4277124096412" cy="165.1429754202065" r="86.23679884189113" fill="#ffffff" fill-opacity="0.11699059791715252" />
<circle cx="1891.4935675997228" cy="1726.3963579479325" r="53.907591194141766" fill="#ffffff" fill-opacity="0.4900801892770297" />
<circle cx="308.23026253251993" cy="1546.829258275264" r="64.12904082745028" fill="#ffffff" fill-opacity="0.13303399498862237" />
<circle cx="1328.1121441418218" cy="1079.3931961509616" r="63.04026165695095" fill="#ffffff" fill-opacity="0.2678824700427217" />
<circle cx="312.64825564904265" cy="1733.2259716133217" r="23.349245764736423" fill="#ffffff" fill-opacity="0.37654603006784026" />
<circle cx="1575.3072337364833" cy="472.22410912648536" r="82.42779799138414" fill="#ffffff" fill-opacity="0.13347985692484424" />
<circle cx="1193.5666178993024" cy="753.3783220646526" r="63.752110774184956" fill="#ffffff" fill-opacity="0.10990335864242659" />
<circle cx="174.6315353436898" cy="938.5715531363359" r="15.943312551495659" fill="#ffffff" fill-opacity="0.13052654222736151" />
<circle cx="481.35760540299265" cy="128.15287928705544" r="36.542925577023226" fill="#ffffff" fill-opacity="0.2512171649126904" />
<circle cx="875.3787070155123" cy="162.03693474199432" r="74.50194041565256" fill="#ffffff" fill-opacity="0.5585141651554573" />
<circle cx="85.93039061254615" cy="380.61542857729336" r="32.03362929724457" fill="#ffffff" fill-opacity="0.1588408354903241" />
<circle cx="1507.3908793986461" cy="1280.7446692507121" r="34.406558760195026" fill="#ffffff" fill-opacity="0.23627491337234366" />
<circle cx="878.2864769154344" cy="1034.6039997079693" r="50.97640481223797" fill="#ffffff" fill-opacity="0.48645868065925824" />
<circle cx="1545.1744823160884" cy="811.0438359650296" r="44.199321843959325" fill="#ffffff" fill-opacity="0.35349572566702625" />
<circle cx="91.6456943426911" cy="1100.8861126344118" r="50.47030474348063" fill="#ffffff" fill-opacity="0.2991628055841242" />
<circle cx="153.23852737786692" cy="1691.6994293437047" r="16.414545758509966" fill="#ffffff" fill-opacity="0.5945271129814674" />
<circle cx="1822.0660691636285" cy="244.8370562525253" r="14.427394578990986" fill="#ffffff" fill-opacity="0.21203218440684649" />
<circle cx="1866.0652280578013" cy="903.0994513299406" r="28.509394171606477" fill="#ffffff" fill-opacity="0.3449188357604803" />
<circle cx="240.77042243639312" cy="992.0890604095011" r="79.79911563773042" fill="#ffffff" fill-opacity="0.5618974509304906" />
<circle cx="1980.03955030907" cy="1072.6250636214806" r="54.495811251821" fill="#ffffff" fill-opacity="0.2612903675391729" />
<circle cx="997.6834387131313" cy="929.9851303563831" r="26.507608757653873" fill="#ffffff" fill-opacity="0.48339993534290115" />
<circle cx="665.8362500804777" cy="871.2644567249168" r="31.87525260256793" fill="#ffffff" fill-opacity="0.3414043736907183" />
<circle cx="1330.024636685613" cy="1010.7543599258593" r="11.066123553183926" fill="#ffffff" fill-opacity="0.1925227211176678" />
<circle cx="1242.683577490119" cy="188.60784957165922" r="38.10234899999959" fill="#ffffff" fill-opacity="0.1514410947502052" />
<circle cx="1110.9172827915086" cy="1733.5706441703517" r="59.97770116588032" fill="#ffffff" fill-opacity="0.3745468501464988" />
<circle cx="1711.8904072701189" cy="868.9833215491595" r="15.627571573659589" fill="#ffffff" fill-opacity="0.20315020613134324" />
<circle cx="868.9566347017342" cy="621.5751361088702" r="65.60459678431005" fill="#ffffff" fill-opacity="0.41941946547341147" />
<circle cx="1356.7783234734063" cy="1337.5672447345394" r="82.95817315241524" fill="#ffffff" fill-opacity="0.38167324197912844" />
<circle cx="327.047661516678" cy="195.5174514337261" r="51.95974076624616" fill="#ffffff" fill-opacity="0.23837825357956074" />
<circle cx="1943.4660006080398" cy="588.3359809675582" r="78.80273281225672" fill="#ffffff" fill-opacity="0.17040081625608902" />
<circle cx="1267.5848848917478" cy="1850.9903947366415" r="73.1155064453776" fill="#ffffff" fill-opacity="0.29860060530078936" />
<circle cx="1166.8265397166776" cy="134.0789514267644" r="42.98009805306965" fill="#ffffff" fill-opacity="0.20356708188802622" />
<circle cx="484.1266586155339" cy="1229.2374574126513" r="61.31133096555776" fill="#ffffff" fill-opacity="0.33566223722922506" />
<circle cx="645.6033123896783" cy="1653.961175817862" r="14.978862366579788" fill="#ffffff" fill-opacity="0.2731765579758352" />
<circle cx="648.4661142055423" cy="563.9429721237017" r="63.66679849399725" fill="#ffffff" fill-opacity="0.2714159074101553" />
<circle cx="633.173865686977" cy="1196.792274686153" r="40.19898089009931" fill="#ffffff" fill-opacity="0.5515436363032936" />
<circle cx="284.31669247046676" cy="1838.6650458479398" r="32.86617778569265" fill="#ffffff" fill-opacity="0.3208285227849551" />
<circle cx="1609.0176010612147" cy="1872.9885400768844" r="82.65986244321299" fill="#ffffff" fill-opacity="0.2505894237551999" />

    </svg>