<svg xmlns="http://www.w3.org/2000/svg" viewBox="0 0 2000 2000">
       <defs>
         <radialGradient id="bokehGrad40">
             <stop offset="0%" stop-color="#ffffff" stop-opacity="1"/>
             <stop offset="100%" stop-color="#ffffff" stop-opacity="0"/>
         </radialGradient>
       </defs>
       <circle cx="124.45357984063143" cy="1836.8274480479915" r="85.60333330606414" fill="#ffffff" fill-opacity="0.3980181878435354" />
<circle cx="556.0307934343869" cy="71.19914017927753" r="84.82988004653501" fill="#ffffff" fill-opacity="0.32811928825632597" />
<circle cx="1975.6954678867573" cy="1428.6871542604974" r="45.755455208467275" fill="#ffffff" fill-opacity="0.23264843993236492" />
<circle cx="1205.1605393718742" cy="187.61223709971597" r="11.297688722597163" fill="#ffffff" fill-opacity="0.19523547741084843" />
<circle cx="1036.1456128515028" cy="1909.4486832994685" r="44.24830545914432" fill="#ffffff" fill-opacity="0.575432241942544" />
<circle cx="395.06427607132275" cy="1399.8900529307662" r="70.96289883053133" fill="#ffffff" fill-opacity="0.17465984439727036" />
<circle cx="1851.4599891560783" cy="1194.848375590869" r="59.28525841710283" fill="#ffffff" fill-opacity="0.1781074843207808" />
<circle cx="1226.1088255134064" cy="1505.0948817887695" r="72.97028146083876" fill="#ffffff" fill-opacity="0.30173856206924377" />
<circle cx="1897.7113628184866" cy="912.0571325636502" r="13.014760611631182" fill="#ffffff" fill-opacity="0.10620540934925157" />
<circle cx="1866.0278062491418" cy="1321.8722984013239" r="13.068364196711855" fill="#ffffff" fill-opacity="0.2756375415861825" />
<circle cx="972.7709710108631" cy="1399.7925727257748" r="62.64882474528818" fill="#ffffff" fill-opacity="0.5059053558224398" />
<circle cx="1522.9505648422016" cy="1668.0562129477598" r="56.323971871500156" fill="#ffffff" fill-opacity="0.36990615100592605" />
<circle cx="1146.7741846746928" cy="1941.9717494559886" r="49.24401371965353" fill="#ffffff" fill-opacity="0.11002374295024722" />
<circle cx="1742.4356115424505" cy="1716.0756602016736" r="54.45618193174382" fill="#ffffff" fill-opacity="0.11768632905883106" />
<circle cx="1599.191259587778" cy="1979.4848495067" r="81.0681516872964" fill="#ffffff" fill-opacity="0.2519109206160973" />
<circle cx="1693.3501866429688" cy="1127.3138571539048" r="13.278009985967989" fill="#ffffff" fill-opacity="0.3255171484432462" />
<circle cx="484.11802842306287" cy="1100.344279008221" r="59.95426352911658" fill="#ffffff" fill-opacity="0.48149677596913465" />
<circle cx="913.5113138649706" cy="591.7608700727013" r="37.4448242972646" fill="#ffffff" fill-opacity="0.3804606901378015" />
<circle cx="1803.205071502014" cy="1108.6830838994501" r="15.865664254404779" fill="#ffffff" fill-opacity="0.5335200942244988" />
<circle cx="1674.9241587856986" cy="1793.8167881747884" r="48.810141674693284" fill="#ffffff" fill-opacity="0.21132273854085917" />
<circle cx="1183.536249853888" cy="1087.401424239847" r="32.47392996146079" fill="#ffffff" fill-opacity="0.29893060091909074" />
<circle cx="343.75740419160604" cy="1800.5902018762322" r="85.70669383669735" fill="#ffffff" fill-opacity="0.5787813353118821" />
<circle cx="1466.741022530517" cy="1376.0972011338615" r="86.15265817113855" fill="#ffffff" fill-opacity="0.5853579241492076" />
<circle cx="1522.1816989588986" cy="1065.0705564845935" r="66.74900051584723" fill="#ffffff" fill-opacity="0.20590374748235216" />
<circle cx="723.8399675381335" cy="577.0321220762853" r="76.46714932446277" fill="#ffffff" fill-opacity="0.5562027726778612" />
<circle cx="1548.28428761073" cy="721.554625687362" r="48.16128613081673" fill="#ffffff" fill-opacity="0.14192132949627054" />
<circle cx="95.41878417654192" cy="1698.247611639907" r="26.21729756528798" fill="#ffffff" fill-opacity="0.3821154284647632" />
<circle cx="41.26135153648525" cy="681.0805220904488" r="66.07882384534842" fill="#ffffff" fill-opacity="0.299405283265496" />
<circle cx="497.99130376029746" cy="524.8456248385511" r="24.168370432242394" fill="#ffffff" fill-opacity="0.45660212322194715" />
<circle cx="904.6618715276373" cy="318.8929386028723" r="64.5089813123027" fill="#ffffff" fill-opacity="0.12969417197974994" />
<circle cx="982.1355016288169" cy="127.01186795077302" r="45.65169453193092" fill="#ffffff" fill-opacity="0.4623183285433614" />
<circle cx="28.56487802799257" cy="1305.522945894936" r="47.734287830078515" fill="#ffffff" fill-opacity="0.2611606807339475" />
<circle cx="486.0934634097032" cy="1307.9211358980795" r="42.44251245648303" fill="#ffffff" fill-opacity="0.23696119344122693" />
<circle cx="1490.15584536524" cy="1473.1293359558147" r="62.95650166562827" fill="#ffffff" fill-opacity="0.2778263037471731" />
<circle cx="547.7544557264129" cy="328.86319517596974" r="44.56345567926577" fill="#ffffff" fill-opacity="0.2535980129029545" />
<circle cx="770.6065798307775" cy="1382.7351601584564" r="57.353136757384505" fill="#ffffff" fill-opacity="0.414186127776186" />
<circle cx="1221.2158842390768" cy="1690.9932838740067" r="20.275854049742996" fill="#ffffff" fill-opacity="0.1074413407971033" />
<circle cx="1200.7972547909824" cy="19.794368142167063" r="12.362323876639536" fill="#ffffff" fill-opacity="0.22596513458371562" />
<circle cx="963.9173118055187" cy="1109.811713051244" r="28.827512611304698" fill="#ffffff" fill-opacity="0.26633909361102936" />
<circle cx="307.8594938374175" cy="1513.2407434155523" r="83.02292881449758" fill="#ffffff" fill-opacity="0.49654719156312455" />

    </svg>