<svg xmlns="http://www.w3.org/2000/svg" viewBox="0 0 2000 2000">
       <defs>
         <radialGradient id="bokehGrad38">
             <stop offset="0%" stop-color="#ffffff" stop-opacity="1"/>
             <stop offset="100%" stop-color="#ffffff" stop-opacity="0"/>
         </radialGradient>
       </defs>
       <circle cx="1503.1081449684568" cy="1432.3849303874076" r="41.330137978679446" fill="#ffffff" fill-opacity="0.582305416350813" />
<circle cx="768.224940534806" cy="315.2746530219672" r="66.46580691437885" fill="#ffffff" fill-opacity="0.3629725994322204" />
<circle cx="1514.8155576969345" cy="991.9195712654156" r="81.27312999232157" fill="#ffffff" fill-opacity="0.5411748934109435" />
<circle cx="685.7775023266036" cy="1602.8944207859813" r="49.03241060837834" fill="#ffffff" fill-opacity="0.1560731099624" />
<circle cx="1738.4776462153548" cy="448.15063051437653" r="28.682640644575947" fill="#ffffff" fill-opacity="0.4910229677858532" />
<circle cx="1192.2312783118684" cy="1665.074711251268" r="36.12795942084803" fill="#ffffff" fill-opacity="0.544368862831875" />
<circle cx="699.2504388073124" cy="554.1343660183309" r="85.67152907297232" fill="#ffffff" fill-opacity="0.4861969377467268" />
<circle cx="807.3759831223184" cy="1317.2946074002884" r="60.1719134780749" fill="#ffffff" fill-opacity="0.18537352915286318" />
<circle cx="9.999642604016312" cy="1403.8738247601414" r="67.28659650849265" fill="#ffffff" fill-opacity="0.514983917169404" />
<circle cx="1145.3540191985198" cy="1959.6077764526628" r="40.076980905394386" fill="#ffffff" fill-opacity="0.23413291384325177" />
<circle cx="1695.4290844214775" cy="1743.9497137354483" r="34.00694172481096" fill="#ffffff" fill-opacity="0.13323629566859743" />
<circle cx="1017.1315371093037" cy="1672.0317054439354" r="16.3391804877549" fill="#ffffff" fill-opacity="0.35599153371615433" />
<circle cx="1383.8684917229464" cy="268.17871665298077" r="15.044312601267418" fill="#ffffff" fill-opacity="0.2832216642149006" />
<circle cx="153.5349770432719" cy="1358.0391143775128" r="68.5089399400615" fill="#ffffff" fill-opacity="0.4915235322451208" />
<circle cx="1720.964833191509" cy="488.7891213219377" r="47.628904383436385" fill="#ffffff" fill-opacity="0.2883204669162108" />
<circle cx="1368.0874622637311" cy="146.0234800122895" r="58.10979978622203" fill="#ffffff" fill-opacity="0.25110586726093787" />
<circle cx="236.81783655689804" cy="793.9213469838772" r="82.14878667834103" fill="#ffffff" fill-opacity="0.5443987237673515" />
<circle cx="725.3082634364285" cy="1578.5215993618795" r="32.20569438602333" fill="#ffffff" fill-opacity="0.5477252010823457" />
<circle cx="1836.183377754491" cy="1814.9275542082062" r="10.500478851387669" fill="#ffffff" fill-opacity="0.5596191054490189" />
<circle cx="876.9303811349176" cy="481.0327654641615" r="32.7621748106109" fill="#ffffff" fill-opacity="0.4749408001865304" />
<circle cx="1496.030636435289" cy="329.06726990477233" r="69.03515970492559" fill="#ffffff" fill-opacity="0.23009439884312347" />
<circle cx="113.42738658491936" cy="1402.443170183996" r="51.597978774629354" fill="#ffffff" fill-opacity="0.5085580053950124" />
<circle cx="111.09193605072876" cy="1969.1362707891174" r="67.9343347006018" fill="#ffffff" fill-opacity="0.28475306685349044" />
<circle cx="51.73608792757345" cy="726.6984032936246" r="82.67425250577585" fill="#ffffff" fill-opacity="0.42425427892142165" />
<circle cx="123.86995676491597" cy="1264.4872740083363" r="76.24860279244629" fill="#ffffff" fill-opacity="0.13889855039492235" />
<circle cx="3.5840872489203424" cy="1049.4584048114696" r="45.100650431690184" fill="#ffffff" fill-opacity="0.495415677795667" />
<circle cx="27.838641493726833" cy="306.47872281062604" r="88.73843071459379" fill="#ffffff" fill-opacity="0.26488728128047523" />
<circle cx="801.4306510433313" cy="1159.73225845435" r="56.68283848174796" fill="#ffffff" fill-opacity="0.5001310350845085" />
<circle cx="1795.2298489011405" cy="903.3599744678737" r="60.48477381092228" fill="#ffffff" fill-opacity="0.3685155485149668" />
<circle cx="922.835676845583" cy="1405.1464318692585" r="19.6518884282144" fill="#ffffff" fill-opacity="0.5861599406728172" />
<circle cx="639.3081470143511" cy="823.8787057694424" r="69.39698721080143" fill="#ffffff" fill-opacity="0.5868490803373622" />
<circle cx="707.9227248154749" cy="841.5007073759291" r="80.53237738545847" fill="#ffffff" fill-opacity="0.4143200378223105" />
<circle cx="383.84031762217296" cy="1722.4048735125366" r="15.051116850195205" fill="#ffffff" fill-opacity="0.4686782383857636" />
<circle cx="1277.6804113596734" cy="1650.0441548297276" r="60.72796653662196" fill="#ffffff" fill-opacity="0.26290033655915035" />
<circle cx="619.5077286085118" cy="643.5633434882337" r="62.089803051743544" fill="#ffffff" fill-opacity="0.19710721798892114" />
<circle cx="1784.6242072742714" cy="146.45857309307343" r="77.20317966727877" fill="#ffffff" fill-opacity="0.4867325195336205" />
<circle cx="517.8943455949014" cy="373.88412241397975" r="55.48657402856223" fill="#ffffff" fill-opacity="0.22608677122247642" />
<circle cx="892.3548788013678" cy="955.1194393702278" r="68.21634956448437" fill="#ffffff" fill-opacity="0.27691788697182496" />
<circle cx="754.2794945853353" cy="1513.821121175153" r="26.753955663352418" fill="#ffffff" fill-opacity="0.5317363000780172" />
<circle cx="1429.6611234860238" cy="182.51716781795935" r="44.14104271267037" fill="#ffffff" fill-opacity="0.5546946628992689" />

    </svg>