<svg xmlns="http://www.w3.org/2000/svg" viewBox="0 0 2000 2000">
       <defs>
         <radialGradient id="bokehGrad44">
             <stop offset="0%" stop-color="#ffffff" stop-opacity="1"/>
             <stop offset="100%" stop-color="#ffffff" stop-opacity="0"/>
         </radialGradient>
       </defs>
       <circle cx="594.1923182315112" cy="1883.8100923225632" r="40.659941404891846" fill="#ffffff" fill-opacity="0.5744716514411087" />
<circle cx="1730.2416093067966" cy="309.7739296055082" r="45.216203124620606" fill="#ffffff" fill-opacity="0.10560643286122165" />
<circle cx="1724.3963916224889" cy="729.5480994740722" r="52.33106638029123" fill="#ffffff" fill-opacity="0.45387196746393454" />
<circle cx="1502.3822654811484" cy="900.1770078666838" r="63.58136266507045" fill="#ffffff" fill-opacity="0.3538551301022185" />
<circle cx="1557.9345057736623" cy="644.7026916669673" r="84.73230819378267" fill="#ffffff" fill-opacity="0.534474908704981" />
<circle cx="1568.759197001034" cy="514.3233159731857" r="11.462560210805375" fill="#ffffff" fill-opacity="0.5395393516025132" />
<circle cx="63.61911958705058" cy="16.987542633498443" r="68.72482008814836" fill="#ffffff" fill-opacity="0.4508219743028691" />
<circle cx="1143.308544656127" cy="272.1586256487838" r="17.209326310593383" fill="#ffffff" fill-opacity="0.5886698014934658" />
<circle cx="1927.6266355264268" cy="224.48398192307107" r="54.17467502354035" fill="#ffffff" fill-opacity="0.2883450116861591" />
<circle cx="1559.7882667296967" cy="1251.7609670176514" r="50.52040004010248" fill="#ffffff" fill-opacity="0.10788516681716578" />
<circle cx="390.0431881753013" cy="373.6286407452654" r="74.33048083977606" fill="#ffffff" fill-opacity="0.2817544547430353" />
<circle cx="1854.0395475140251" cy="300.09784382859175" r="48.526894466767274" fill="#ffffff" fill-opacity="0.11317562805932388" />
<circle cx="1460.2338738004707" cy="1524.3512385483732" r="31.758758885259653" fill="#ffffff" fill-opacity="0.20964058307556963" />
<circle cx="1036.54836973752" cy="819.7886537594918" r="19.282607509440766" fill="#ffffff" fill-opacity="0.4594224931117419" />
<circle cx="1617.4136201927402" cy="1005.0790232163403" r="11.236680013273777" fill="#ffffff" fill-opacity="0.5799622574197648" />
<circle cx="392.98385756312217" cy="996.1745072580736" r="51.566121906107334" fill="#ffffff" fill-opacity="0.3478980730341523" />
<circle cx="1263.9917568971287" cy="1962.5929231983523" r="31.68853877507477" fill="#ffffff" fill-opacity="0.5492803421682759" />
<circle cx="1890.7044692226923" cy="1105.2457331177704" r="88.44502942581984" fill="#ffffff" fill-opacity="0.17319374825513453" />
<circle cx="1488.8010927785776" cy="1337.799117747236" r="42.79509057723694" fill="#ffffff" fill-opacity="0.5577478863222496" />
<circle cx="1850.4661158076642" cy="553.5338524343481" r="72.72940049844324" fill="#ffffff" fill-opacity="0.3420778846282896" />
<circle cx="1510.4261507501694" cy="2.5405240863718426" r="38.9307366897925" fill="#ffffff" fill-opacity="0.3009888426829189" />
<circle cx="28.82795948497252" cy="633.9037907139407" r="43.53150583313163" fill="#ffffff" fill-opacity="0.41938681609650397" />
<circle cx="1563.6489400000505" cy="1661.0533588040776" r="34.27865330273545" fill="#ffffff" fill-opacity="0.19732095360978844" />
<circle cx="384.33010627561725" cy="795.5704677768763" r="23.469977378596674" fill="#ffffff" fill-opacity="0.3579309220313661" />
<circle cx="1323.0736314406329" cy="428.79226404788784" r="47.79511359656575" fill="#ffffff" fill-opacity="0.3112832745170815" />
<circle cx="977.9373201948426" cy="35.27810193065939" r="79.96585511759427" fill="#ffffff" fill-opacity="0.12086870786374551" />
<circle cx="481.0805105341216" cy="78.38707901753983" r="50.36795343067469" fill="#ffffff" fill-opacity="0.5791172441140515" />
<circle cx="192.7794039345836" cy="1366.628470888775" r="83.73216978047817" fill="#ffffff" fill-opacity="0.4309590174900354" />
<circle cx="714.3075707585668" cy="1376.9245763631154" r="29.487045595125547" fill="#ffffff" fill-opacity="0.1527940740315004" />
<circle cx="1632.8802000434698" cy="1354.0965088997327" r="62.34420641578172" fill="#ffffff" fill-opacity="0.13471756612072613" />
<circle cx="997.1143695582498" cy="1150.7089111752782" r="15.684471087860041" fill="#ffffff" fill-opacity="0.2239973749089236" />
<circle cx="772.0869329042828" cy="189.46034268892674" r="85.67976507349287" fill="#ffffff" fill-opacity="0.36897575796069026" />
<circle cx="678.0708502208602" cy="885.7185398209684" r="46.98606795846919" fill="#ffffff" fill-opacity="0.487797043084515" />
<circle cx="1359.0781960000306" cy="1557.1672135644044" r="44.97929592736456" fill="#ffffff" fill-opacity="0.5912177518117306" />
<circle cx="1830.8662159487076" cy="124.32601879420258" r="31.63613917482129" fill="#ffffff" fill-opacity="0.271753711334099" />
<circle cx="187.13737020286203" cy="742.0332720460867" r="77.47859593026055" fill="#ffffff" fill-opacity="0.15022266894414646" />
<circle cx="1169.8296925902057" cy="1320.180450514641" r="13.474552271810634" fill="#ffffff" fill-opacity="0.45386330419733967" />
<circle cx="777.4238266903353" cy="1866.8592500993193" r="54.788827975993" fill="#ffffff" fill-opacity="0.329310517386909" />
<circle cx="453.2045724111622" cy="1462.0041738107825" r="67.7244970795804" fill="#ffffff" fill-opacity="0.5825098488059808" />
<circle cx="1333.9915028644168" cy="142.38746459276453" r="44.91450157952528" fill="#ffffff" fill-opacity="0.5913506223986307" />

    </svg>