<svg xmlns="http://www.w3.org/2000/svg" viewBox="0 0 2000 2000">
       <defs>
         <radialGradient id="bokehGrad31">
             <stop offset="0%" stop-color="#ffffff" stop-opacity="1"/>
             <stop offset="100%" stop-color="#ffffff" stop-opacity="0"/>
         </radialGradient>
       </defs>
       <circle cx="877.7114843305205" cy="1562.9230816754048" r="79.4105472520859" fill="#ffffff" fill-opacity="0.4650661513613461" />
<circle cx="891.6907523169459" cy="85.50042121655865" r="62.52363982612245" fill="#ffffff" fill-opacity="0.30062361758983713" />
<circle cx="1351.1856518189181" cy="919.3107484610612" r="71.78333390225544" fill="#ffffff" fill-opacity="0.3861559471605277" />
<circle cx="509.18581160220697" cy="1263.5079492638579" r="58.32323529607741" fill="#ffffff" fill-opacity="0.3248501349307302" />
<circle cx="285.9465602249889" cy="854.3739866959286" r="73.18051829593631" fill="#ffffff" fill-opacity="0.20226926654074426" />
<circle cx="314.171752220783" cy="394.63286000407874" r="70.91035695227963" fill="#ffffff" fill-opacity="0.5140686477568409" />
<circle cx="1567.2928974528731" cy="610.7679183493412" r="69.76612306905857" fill="#ffffff" fill-opacity="0.17603650342567603" />
<circle cx="1368.0375131871106" cy="1077.9011250031808" r="85.10278547987613" fill="#ffffff" fill-opacity="0.48837312149230105" />
<circle cx="432.64425526915073" cy="1706.2330986301934" r="65.92292189383647" fill="#ffffff" fill-opacity="0.23246328645968242" />
<circle cx="1901.0555767000371" cy="1160.1796485753707" r="54.22508158954902" fill="#ffffff" fill-opacity="0.48300286911278834" />
<circle cx="991.9972935612831" cy="1769.8312629099466" r="15.29854344274086" fill="#ffffff" fill-opacity="0.16930147507798946" />
<circle cx="1597.8329172730032" cy="867.0240650112726" r="16.8518325526706" fill="#ffffff" fill-opacity="0.47045948364107215" />
<circle cx="1667.1320173376228" cy="527.7326509995453" r="21.939541729624725" fill="#ffffff" fill-opacity="0.5313015177430037" />
<circle cx="776.6393661141307" cy="291.89672591710814" r="81.55294071129691" fill="#ffffff" fill-opacity="0.1873445824517818" />
<circle cx="663.6590032827249" cy="759.938024971019" r="16.9905485180536" fill="#ffffff" fill-opacity="0.10522413610409373" />
<circle cx="743.2602157977079" cy="651.8337865163444" r="58.01381669596683" fill="#ffffff" fill-opacity="0.2892546215515236" />
<circle cx="1175.9143916613098" cy="463.71455232706205" r="50.755998481421315" fill="#ffffff" fill-opacity="0.5108772527974468" />
<circle cx="1728.0606152669368" cy="1700.881681266507" r="79.07389497591649" fill="#ffffff" fill-opacity="0.545105010494358" />
<circle cx="853.2038515852431" cy="521.8913071879499" r="48.57000666030585" fill="#ffffff" fill-opacity="0.14268438659664626" />
<circle cx="56.41231830858096" cy="1314.3505406281483" r="66.54170140311534" fill="#ffffff" fill-opacity="0.3044970664151646" />
<circle cx="744.7134284868173" cy="650.8279784442941" r="52.490230050666895" fill="#ffffff" fill-opacity="0.3652006939621395" />
<circle cx="1869.1627825579121" cy="341.2702708967785" r="88.52179764470483" fill="#ffffff" fill-opacity="0.23871333560265814" />
<circle cx="1432.5740440932784" cy="550.1179007760915" r="58.77252031683335" fill="#ffffff" fill-opacity="0.472841977657545" />
<circle cx="1059.2676749268157" cy="1294.7238951844345" r="19.947016163950593" fill="#ffffff" fill-opacity="0.5549424840401984" />
<circle cx="216.52990862814602" cy="821.1311856735435" r="75.837341547063" fill="#ffffff" fill-opacity="0.593301229353646" />
<circle cx="565.025901825182" cy="173.16213521294023" r="41.61131126329267" fill="#ffffff" fill-opacity="0.41537865531995743" />
<circle cx="1247.0875643130253" cy="369.2286178525488" r="62.78891653033774" fill="#ffffff" fill-opacity="0.10740644438045341" />
<circle cx="1916.9619963258538" cy="1393.5728715337957" r="83.08145220914119" fill="#ffffff" fill-opacity="0.21651553961113926" />
<circle cx="1020.9618367560729" cy="230.80459657037332" r="77.42121966946395" fill="#ffffff" fill-opacity="0.3858946529057472" />
<circle cx="1432.1362847099556" cy="1352.4516897078477" r="27.98544063243738" fill="#ffffff" fill-opacity="0.2343312152528522" />
<circle cx="1530.4982053849042" cy="10.984307416925354" r="68.11720354385201" fill="#ffffff" fill-opacity="0.10717387981639534" />
<circle cx="1206.0091793938584" cy="986.2828029291413" r="43.04750970113146" fill="#ffffff" fill-opacity="0.4238954958903134" />
<circle cx="212.40182894226135" cy="392.04443695971713" r="76.30072583108003" fill="#ffffff" fill-opacity="0.50324110734481" />
<circle cx="765.9457850626874" cy="1595.2382984671412" r="63.6796381319147" fill="#ffffff" fill-opacity="0.528256197995148" />
<circle cx="1430.3454827442938" cy="1919.9925899285652" r="35.420284999956834" fill="#ffffff" fill-opacity="0.3179654713285289" />
<circle cx="262.5570589225525" cy="1430.0107891063378" r="37.58910949710935" fill="#ffffff" fill-opacity="0.5354099746961485" />
<circle cx="339.26002475501707" cy="1350.6222603740987" r="37.90007467528183" fill="#ffffff" fill-opacity="0.584792474090056" />
<circle cx="1050.8675947330833" cy="214.23492379972075" r="57.113743244700785" fill="#ffffff" fill-opacity="0.564906536893881" />
<circle cx="480.0739937655012" cy="1083.8003994530723" r="52.414295094127745" fill="#ffffff" fill-opacity="0.4318906810433447" />
<circle cx="875.6228371063141" cy="1477.5274739587567" r="15.879496330732863" fill="#ffffff" fill-opacity="0.417348304601895" />

    </svg>