<svg xmlns="http://www.w3.org/2000/svg" viewBox="0 0 2000 2000">
       <defs>
         <radialGradient id="bokehGrad49">
             <stop offset="0%" stop-color="#ffffff" stop-opacity="1"/>
             <stop offset="100%" stop-color="#ffffff" stop-opacity="0"/>
         </radialGradient>
       </defs>
       <circle cx="857.6238903960931" cy="1667.2144895217825" r="46.74886514332773" fill="#ffffff" fill-opacity="0.3129478338109034" />
<circle cx="1878.7326597579226" cy="1018.1463055191806" r="23.715184695839984" fill="#ffffff" fill-opacity="0.4113840350088501" />
<circle cx="1433.1085719113719" cy="1509.2525269814644" r="26.85670151113999" fill="#ffffff" fill-opacity="0.22857953949012697" />
<circle cx="1465.2630832630455" cy="412.5048653953685" r="86.80913428005019" fill="#ffffff" fill-opacity="0.5319836562885155" />
<circle cx="954.5431908065917" cy="70.66862102315041" r="84.243026923801" fill="#ffffff" fill-opacity="0.40000296165396965" />
<circle cx="179.06722694728393" cy="80.50692568978279" r="22.646610322075247" fill="#ffffff" fill-opacity="0.27511340873756085" />
<circle cx="1124.2609007443266" cy="1581.3448691272954" r="18.227313751953915" fill="#ffffff" fill-opacity="0.48805604506837696" />
<circle cx="55.50929522035241" cy="871.9979954490229" r="82.45101508926818" fill="#ffffff" fill-opacity="0.2523215038970983" />
<circle cx="1166.0236713893323" cy="1873.5275036032062" r="34.856082984167436" fill="#ffffff" fill-opacity="0.10031087557480742" />
<circle cx="97.48775125252229" cy="1287.9416128035748" r="64.38670183197111" fill="#ffffff" fill-opacity="0.22324596703620633" />
<circle cx="1131.3188093364613" cy="6.952210527955582" r="67.73485336175162" fill="#ffffff" fill-opacity="0.40415786141510446" />
<circle cx="449.3062747360415" cy="1024.5137522992866" r="74.30671183069188" fill="#ffffff" fill-opacity="0.3285022870830091" />
<circle cx="143.65307552059338" cy="1454.1227489170838" r="57.69730750041987" fill="#ffffff" fill-opacity="0.195789794703132" />
<circle cx="1632.6836285349546" cy="1559.71983664512" r="85.46371363641181" fill="#ffffff" fill-opacity="0.4026453657471092" />
<circle cx="1192.4643397108605" cy="1021.7176681084466" r="12.946491950537968" fill="#ffffff" fill-opacity="0.1275916172052816" />
<circle cx="1107.5373986330364" cy="684.8780701761881" r="21.79325103129848" fill="#ffffff" fill-opacity="0.1557215471204825" />
<circle cx="1010.7604790029368" cy="1702.1096388121741" r="55.380037186166646" fill="#ffffff" fill-opacity="0.27022360111719146" />
<circle cx="1540.4200584043892" cy="1211.8363465080663" r="19.402229791654495" fill="#ffffff" fill-opacity="0.2033940729643399" />
<circle cx="1334.53166505077" cy="1088.0458554189465" r="56.62686067172254" fill="#ffffff" fill-opacity="0.3681700939394582" />
<circle cx="1129.0401341294007" cy="1251.899415597187" r="44.20074812297039" fill="#ffffff" fill-opacity="0.3375501815542624" />
<circle cx="1739.219138689296" cy="145.0936102070306" r="71.2664321067535" fill="#ffffff" fill-opacity="0.2888270802323909" />
<circle cx="865.4367424549694" cy="1615.1356108878806" r="56.50152402758888" fill="#ffffff" fill-opacity="0.2968056109484114" />
<circle cx="1412.982527928257" cy="1472.9667721164226" r="27.234899976811082" fill="#ffffff" fill-opacity="0.5599052893063691" />
<circle cx="724.963546343441" cy="1585.7192252721711" r="74.55062243110113" fill="#ffffff" fill-opacity="0.5957491740695505" />
<circle cx="1671.1211505997226" cy="390.763206903588" r="37.77741190060261" fill="#ffffff" fill-opacity="0.5331479498963594" />
<circle cx="1229.967855182686" cy="875.1974559140663" r="76.0958218167312" fill="#ffffff" fill-opacity="0.5407873903778403" />
<circle cx="1604.5670502834662" cy="1727.943645680267" r="73.48013741631333" fill="#ffffff" fill-opacity="0.4879753241008812" />
<circle cx="695.7078767397362" cy="1422.6718337234358" r="48.05810536718834" fill="#ffffff" fill-opacity="0.5610802018450954" />
<circle cx="1592.3505705210487" cy="461.5507394359364" r="11.523818528227707" fill="#ffffff" fill-opacity="0.3566383920078128" />
<circle cx="1937.4638651234984" cy="1782.9748546954077" r="56.13216878280872" fill="#ffffff" fill-opacity="0.21545981763110297" />
<circle cx="830.3007509308928" cy="1637.0254762619347" r="41.44962189466065" fill="#ffffff" fill-opacity="0.4150239634296742" />
<circle cx="761.5014655233097" cy="956.3144988890156" r="56.66360431390598" fill="#ffffff" fill-opacity="0.3069522456290644" />
<circle cx="1322.367271307896" cy="1244.0205510156575" r="80.56520311865633" fill="#ffffff" fill-opacity="0.46527077992642574" />
<circle cx="1984.508191059691" cy="1788.5877210093672" r="13.788453002290106" fill="#ffffff" fill-opacity="0.13973466081480437" />
<circle cx="1890.604952091083" cy="287.42140664333624" r="78.86865650597474" fill="#ffffff" fill-opacity="0.5091214635001834" />
<circle cx="132.60724942726299" cy="1698.478483503189" r="19.92368543053508" fill="#ffffff" fill-opacity="0.4826664102475545" />
<circle cx="906.9651739942062" cy="656.7823625323326" r="59.381101057361995" fill="#ffffff" fill-opacity="0.2917953286675412" />
<circle cx="971.8188050426472" cy="385.07299042403844" r="25.815224636671257" fill="#ffffff" fill-opacity="0.2489271706831582" />
<circle cx="1495.208920651814" cy="732.5042922817315" r="54.56551955049761" fill="#ffffff" fill-opacity="0.37017774270867077" />
<circle cx="1384.096791861243" cy="1863.4769525119434" r="67.33574780943115" fill="#ffffff" fill-opacity="0.4076748709361081" />

    </svg>