<svg xmlns="http://www.w3.org/2000/svg" viewBox="0 0 2000 2000">
       <defs>
         <radialGradient id="bokehGrad59">
             <stop offset="0%" stop-color="#ffffff" stop-opacity="1"/>
             <stop offset="100%" stop-color="#ffffff" stop-opacity="0"/>
         </radialGradient>
       </defs>
       <circle cx="1010.1720775382612" cy="807.4639815635713" r="60.089657543964485" fill="#ffffff" fill-opacity="0.45774269332787554" />
<circle cx="1673.0505835946649" cy="530.7782022144291" r="72.82238352554344" fill="#ffffff" fill-opacity="0.40682057699528407" />
<circle cx="1464.6575296292408" cy="865.002461556379" r="44.13459513262226" fill="#ffffff" fill-opacity="0.5450809881989811" />
<circle cx="67.52908834512405" cy="1932.5008654019673" r="86.18828818987306" fill="#ffffff" fill-opacity="0.2611701450507502" />
<circle cx="775.9181876629029" cy="1453.3921590680848" r="37.94007778886627" fill="#ffffff" fill-opacity="0.5195221787483086" />
<circle cx="1111.7935198566406" cy="1714.955928762223" r="11.40015906534555" fill="#ffffff" fill-opacity="0.550335933225397" />
<circle cx="1936.6488652776993" cy="1402.9733267483891" r="56.73866100155513" fill="#ffffff" fill-opacity="0.4727268932443157" />
<circle cx="1221.1744105775954" cy="844.9052113454294" r="88.29840700678561" fill="#ffffff" fill-opacity="0.5010719871028575" />
<circle cx="40.75226964495893" cy="391.6470327171675" r="61.50329186948915" fill="#ffffff" fill-opacity="0.24940821252953152" />
<circle cx="1655.0012188059309" cy="1334.6667787927272" r="35.08977090139461" fill="#ffffff" fill-opacity="0.5015331396462154" />
<circle cx="273.44721449602514" cy="1332.8788914300396" r="57.48211973965748" fill="#ffffff" fill-opacity="0.5878066043996074" />
<circle cx="1084.3806015195603" cy="1667.9603219479682" r="67.50632195591643" fill="#ffffff" fill-opacity="0.42353739646721456" />
<circle cx="85.63210753499861" cy="560.7564231241578" r="46.165974085478766" fill="#ffffff" fill-opacity="0.5828110195948484" />
<circle cx="1142.7815172892745" cy="289.1901139581663" r="48.36417963745624" fill="#ffffff" fill-opacity="0.3890810248841384" />
<circle cx="584.5977404021028" cy="1768.6575024464141" r="30.96804543137666" fill="#ffffff" fill-opacity="0.4406293427369289" />
<circle cx="1323.1170812084347" cy="1621.8709430119516" r="89.8963603903732" fill="#ffffff" fill-opacity="0.4393279680877432" />
<circle cx="1686.568623372951" cy="1767.6233277755969" r="58.32027134484494" fill="#ffffff" fill-opacity="0.16785734611959016" />
<circle cx="1488.824373752635" cy="1138.8776431888145" r="59.59144301336606" fill="#ffffff" fill-opacity="0.19786613225556313" />
<circle cx="19.573850717252263" cy="1967.8959357515423" r="32.56291096427227" fill="#ffffff" fill-opacity="0.587301307417843" />
<circle cx="501.39568874835373" cy="1495.2035007908896" r="86.70811691210159" fill="#ffffff" fill-opacity="0.26904253433405745" />
<circle cx="1426.2652596970884" cy="1499.3775784115612" r="14.166269458546594" fill="#ffffff" fill-opacity="0.2707731424406309" />
<circle cx="966.9473487822775" cy="234.74960276208833" r="38.053419442989444" fill="#ffffff" fill-opacity="0.12541740489935574" />
<circle cx="862.6435349503789" cy="521.6460541629011" r="17.54729466643658" fill="#ffffff" fill-opacity="0.1884992162865348" />
<circle cx="1056.3797227735472" cy="843.7082185637775" r="64.91976989315054" fill="#ffffff" fill-opacity="0.3027640127491078" />
<circle cx="620.1521116893831" cy="274.91580431794847" r="74.57523953015622" fill="#ffffff" fill-opacity="0.3937798192708727" />
<circle cx="408.6137828530689" cy="439.2498974856951" r="20.494205276627042" fill="#ffffff" fill-opacity="0.3752930273697579" />
<circle cx="1375.6842887445066" cy="307.7993649085253" r="20.356623766708033" fill="#ffffff" fill-opacity="0.5303666264976221" />
<circle cx="508.11141399235504" cy="1976.1482194404991" r="24.936309538340062" fill="#ffffff" fill-opacity="0.4352065367161234" />
<circle cx="602.6184049304724" cy="461.5130103775518" r="35.706273483072806" fill="#ffffff" fill-opacity="0.1506961011894222" />
<circle cx="869.7853431923368" cy="1483.7870107056467" r="10.777891306905216" fill="#ffffff" fill-opacity="0.5574735364077588" />
<circle cx="1050.808771296343" cy="412.7884734749716" r="71.57055345602637" fill="#ffffff" fill-opacity="0.28400089067835466" />
<circle cx="1090.7581007868162" cy="1146.9686696332105" r="23.30561830688695" fill="#ffffff" fill-opacity="0.4185650173750253" />
<circle cx="799.1835919779558" cy="1937.5212763607283" r="17.44843995644014" fill="#ffffff" fill-opacity="0.11386659797254925" />
<circle cx="1583.6276658519787" cy="931.7406964798345" r="30.466451515865096" fill="#ffffff" fill-opacity="0.34207313680041085" />
<circle cx="154.8657802546587" cy="943.0184518833895" r="39.77115825325069" fill="#ffffff" fill-opacity="0.1086802326859039" />
<circle cx="1908.9276039836266" cy="1546.8850640106289" r="61.89694003289844" fill="#ffffff" fill-opacity="0.5314260326666574" />
<circle cx="808.316735103164" cy="1218.99823063468" r="38.08223376549259" fill="#ffffff" fill-opacity="0.4656910953426796" />
<circle cx="388.0986750970869" cy="660.0811173381036" r="29.714425607600283" fill="#ffffff" fill-opacity="0.30503217065041466" />
<circle cx="1533.81313731419" cy="424.22738196643814" r="20.004661758030522" fill="#ffffff" fill-opacity="0.2950406705896673" />
<circle cx="50.77678489198245" cy="268.0364324940319" r="84.1213205830556" fill="#ffffff" fill-opacity="0.3506141250916657" />

    </svg>