<svg xmlns="http://www.w3.org/2000/svg" viewBox="0 0 2000 2000">
       <defs>
         <radialGradient id="bokehGrad30">
             <stop offset="0%" stop-color="#ffffff" stop-opacity="1"/>
             <stop offset="100%" stop-color="#ffffff" stop-opacity="0"/>
         </radialGradient>
       </defs>
       <circle cx="993.4830410956416" cy="1870.516860756209" r="86.53474229131555" fill="#ffffff" fill-opacity="0.5911832737198277" />
<circle cx="1795.8688533767195" cy="1720.3213596373384" r="35.30988130976553" fill="#ffffff" fill-opacity="0.301749975681327" />
<circle cx="1366.9764039189254" cy="1970.440675991348" r="72.03333453507136" fill="#ffffff" fill-opacity="0.5929070339790146" />
<circle cx="1588.5465010455005" cy="1846.4026109932436" r="67.5533830805573" fill="#ffffff" fill-opacity="0.5984652798845481" />
<circle cx="788.9461851500472" cy="800.8048509161523" r="11.868105215061506" fill="#ffffff" fill-opacity="0.13174945414852698" />
<circle cx="763.3956559505583" cy="1327.6774510992675" r="72.62939453790938" fill="#ffffff" fill-opacity="0.22437906074590167" />
<circle cx="1882.6859064838197" cy="474.2231256330847" r="70.12356803487924" fill="#ffffff" fill-opacity="0.3871836088303662" />
<circle cx="1333.3954752892316" cy="1012.7875134569513" r="43.06305180345795" fill="#ffffff" fill-opacity="0.3868432092247317" />
<circle cx="163.84075573515133" cy="226.74694204737068" r="12.388325272213505" fill="#ffffff" fill-opacity="0.4402296129061748" />
<circle cx="981.325823851282" cy="1485.089404252105" r="77.71700960509104" fill="#ffffff" fill-opacity="0.32623712323891574" />
<circle cx="175.31817879391244" cy="1666.9193962303395" r="79.07813184456332" fill="#ffffff" fill-opacity="0.44528998858200375" />
<circle cx="1208.361379273646" cy="1146.5973189403226" r="76.58589234503506" fill="#ffffff" fill-opacity="0.2970918260572081" />
<circle cx="1188.5264309673187" cy="62.72696406648115" r="64.04984700772263" fill="#ffffff" fill-opacity="0.15713818820700812" />
<circle cx="769.4952076203157" cy="1720.2037899423044" r="50.933840150854344" fill="#ffffff" fill-opacity="0.3408897368071985" />
<circle cx="295.44445543986694" cy="718.611245507911" r="61.368034865429884" fill="#ffffff" fill-opacity="0.24035598753892187" />
<circle cx="1723.8171688312527" cy="1599.8891216725065" r="70.61721628862384" fill="#ffffff" fill-opacity="0.11211017626700684" />
<circle cx="622.6862605865524" cy="753.6413456397919" r="66.7163525052285" fill="#ffffff" fill-opacity="0.2165212948413894" />
<circle cx="236.30274917298766" cy="82.61613456395511" r="23.38113063915064" fill="#ffffff" fill-opacity="0.46314365865757456" />
<circle cx="657.0562786874837" cy="290.7614193400399" r="79.4695061213246" fill="#ffffff" fill-opacity="0.2634946858532021" />
<circle cx="1655.6788367086929" cy="926.3563070355203" r="48.856895907135964" fill="#ffffff" fill-opacity="0.5420159404495896" />
<circle cx="64.3435922843092" cy="82.56504022040212" r="12.637949394424863" fill="#ffffff" fill-opacity="0.3166321529167252" />
<circle cx="1442.5415678357772" cy="598.2114326798373" r="26.194103058267643" fill="#ffffff" fill-opacity="0.2654678685518407" />
<circle cx="440.30484482156515" cy="1263.5926728782613" r="10.29971692991512" fill="#ffffff" fill-opacity="0.43464652535483483" />
<circle cx="1302.2241713927197" cy="1809.0574540791101" r="84.01429824427068" fill="#ffffff" fill-opacity="0.5190354267743453" />
<circle cx="1967.8103343554267" cy="336.15804317319567" r="20.918349701410115" fill="#ffffff" fill-opacity="0.26177370286044976" />
<circle cx="1143.4168540838039" cy="739.8468537588509" r="43.76345280140745" fill="#ffffff" fill-opacity="0.26194715358408716" />
<circle cx="384.81713796532756" cy="1281.8662596366228" r="31.90011811462267" fill="#ffffff" fill-opacity="0.27265592385095483" />
<circle cx="1108.3187048194084" cy="654.1053112702517" r="72.51532638099611" fill="#ffffff" fill-opacity="0.256330394500356" />
<circle cx="947.1580695615447" cy="524.4177375824679" r="86.2224749459765" fill="#ffffff" fill-opacity="0.21996791084434483" />
<circle cx="1457.4152119819128" cy="1997.2406553758456" r="77.45482992204278" fill="#ffffff" fill-opacity="0.32790642753475296" />
<circle cx="316.6052214075581" cy="158.95540307308198" r="11.520635784187112" fill="#ffffff" fill-opacity="0.2003562891610162" />
<circle cx="1466.9333812496602" cy="1755.3654685981987" r="35.665989268172964" fill="#ffffff" fill-opacity="0.493822221824896" />
<circle cx="42.72888811454734" cy="616.0751909988107" r="13.273289272757367" fill="#ffffff" fill-opacity="0.31086354165582497" />
<circle cx="1233.6854901164425" cy="3.758183114646485" r="30.988520336654446" fill="#ffffff" fill-opacity="0.1309657036636517" />
<circle cx="1796.1241389428444" cy="1790.8091684969484" r="48.48860248799947" fill="#ffffff" fill-opacity="0.5028224535705411" />
<circle cx="1043.731734674005" cy="515.6056977312622" r="11.006772792682025" fill="#ffffff" fill-opacity="0.40751942836371624" />
<circle cx="1749.1105214322386" cy="1665.2666551185778" r="29.891807637607464" fill="#ffffff" fill-opacity="0.4638087103076822" />
<circle cx="257.3575126704293" cy="983.1506976755898" r="34.49595523151298" fill="#ffffff" fill-opacity="0.5256502339505842" />
<circle cx="174.77882078186724" cy="73.00967621976207" r="66.17201495090985" fill="#ffffff" fill-opacity="0.24483004453271182" />
<circle cx="885.2967104983134" cy="1020.3110519209722" r="53.22476840012844" fill="#ffffff" fill-opacity="0.1940571559771744" />

    </svg>