<svg xmlns="http://www.w3.org/2000/svg" viewBox="0 0 2000 2000">
       <defs>
         <radialGradient id="bokehGrad43">
             <stop offset="0%" stop-color="#ffffff" stop-opacity="1"/>
             <stop offset="100%" stop-color="#ffffff" stop-opacity="0"/>
         </radialGradient>
       </defs>
       <circle cx="1793.39214141546" cy="41.436478697694625" r="55.94834759024212" fill="#ffffff" fill-opacity="0.24397685973582325" />
<circle cx="1096.8557212986343" cy="297.7397179298309" r="41.202857853007686" fill="#ffffff" fill-opacity="0.20608538696193748" />
<circle cx="1514.794964741051" cy="1863.9493222635804" r="36.87462309587228" fill="#ffffff" fill-opacity="0.5348366497514522" />
<circle cx="1510.8192658503183" cy="110.53945301059787" r="30.717902669104006" fill="#ffffff" fill-opacity="0.18493074194677708" />
<circle cx="685.5002032184134" cy="148.50436127920963" r="62.98395086779756" fill="#ffffff" fill-opacity="0.224589414630639" />
<circle cx="459.1070828103432" cy="1212.1426147981238" r="73.73770155343914" fill="#ffffff" fill-opacity="0.5990365913427046" />
<circle cx="1578.7086471948503" cy="1247.6531659545606" r="69.5387927870624" fill="#ffffff" fill-opacity="0.22928416650236208" />
<circle cx="45.43518405641089" cy="1436.7208332079874" r="15.195919371690465" fill="#ffffff" fill-opacity="0.20329321484142235" />
<circle cx="1385.630039677329" cy="1004.6949563494414" r="55.1979315804366" fill="#ffffff" fill-opacity="0.5569957241771003" />
<circle cx="1978.2782833843721" cy="1253.551413040381" r="39.8208046753262" fill="#ffffff" fill-opacity="0.39754283449311534" />
<circle cx="1360.6360937248728" cy="694.2053871661334" r="85.65098780787332" fill="#ffffff" fill-opacity="0.33805664926126777" />
<circle cx="1382.8869415081078" cy="1912.9541481205188" r="60.8837690591503" fill="#ffffff" fill-opacity="0.3663866799372668" />
<circle cx="1936.666456358874" cy="1426.8438305210282" r="63.72580448783278" fill="#ffffff" fill-opacity="0.3388811947315049" />
<circle cx="455.5175117439205" cy="892.074154863102" r="13.609526303744754" fill="#ffffff" fill-opacity="0.36983046241058104" />
<circle cx="1259.5846956302498" cy="128.04799852461392" r="73.60004882743078" fill="#ffffff" fill-opacity="0.42320222226226656" />
<circle cx="1521.391790604554" cy="434.83074049639225" r="39.5394103069942" fill="#ffffff" fill-opacity="0.4492736732568344" />
<circle cx="1620.3811496871" cy="711.5278604041935" r="89.72523135676792" fill="#ffffff" fill-opacity="0.5991604303032421" />
<circle cx="43.76006600412641" cy="1606.195501632894" r="24.843071976381232" fill="#ffffff" fill-opacity="0.3343851688579189" />
<circle cx="1671.2681079009478" cy="1484.4196028294737" r="33.71973157080602" fill="#ffffff" fill-opacity="0.1005854940195797" />
<circle cx="1137.4678259713814" cy="224.05732932963264" r="30.060604103565343" fill="#ffffff" fill-opacity="0.42010054575978983" />
<circle cx="1671.0768250640594" cy="425.1223210439454" r="77.46827320803465" fill="#ffffff" fill-opacity="0.10014030226018436" />
<circle cx="1418.0041276454542" cy="73.45860912764968" r="62.43326288403635" fill="#ffffff" fill-opacity="0.3125854944952924" />
<circle cx="1559.0925333141317" cy="1825.110497728766" r="20.68986938223345" fill="#ffffff" fill-opacity="0.40700047838702436" />
<circle cx="655.1575481658285" cy="654.0774379816572" r="75.8017332462233" fill="#ffffff" fill-opacity="0.21512248121390656" />
<circle cx="117.60829844292564" cy="1355.426755381155" r="21.808667470858325" fill="#ffffff" fill-opacity="0.11799014245757708" />
<circle cx="1859.0316186128168" cy="208.26339574186846" r="34.07771804616267" fill="#ffffff" fill-opacity="0.2876382957472172" />
<circle cx="1396.7868386231528" cy="1432.2226993124737" r="16.587849280075034" fill="#ffffff" fill-opacity="0.28890105256299803" />
<circle cx="1832.9977088031671" cy="729.6619036269791" r="56.41313685102161" fill="#ffffff" fill-opacity="0.21836570256322016" />
<circle cx="1572.2659541047424" cy="224.0016250507344" r="86.68956877727716" fill="#ffffff" fill-opacity="0.398838045627426" />
<circle cx="1403.273552623731" cy="1478.3038121172617" r="54.964985894648024" fill="#ffffff" fill-opacity="0.1289591094569811" />
<circle cx="28.822781986902022" cy="1812.0984831516025" r="56.602453641012374" fill="#ffffff" fill-opacity="0.36567584155872324" />
<circle cx="618.4144784280221" cy="14.620966226734478" r="56.190737382345276" fill="#ffffff" fill-opacity="0.1359903873154156" />
<circle cx="1965.0984948175192" cy="1286.3069300103352" r="30.357600377347993" fill="#ffffff" fill-opacity="0.1366271713883165" />
<circle cx="506.14334938788375" cy="1160.3187979671832" r="58.167222083848856" fill="#ffffff" fill-opacity="0.5733417027146829" />
<circle cx="880.28361726298" cy="677.4284432223825" r="72.97278343169032" fill="#ffffff" fill-opacity="0.264534973689194" />
<circle cx="1796.1388755104285" cy="288.15044948817945" r="82.5327125609789" fill="#ffffff" fill-opacity="0.3997434338461161" />
<circle cx="1463.7517427954092" cy="1793.7447500397004" r="12.030642953899324" fill="#ffffff" fill-opacity="0.18587531933269105" />
<circle cx="1783.3938093915617" cy="204.2326532165686" r="29.565408266198887" fill="#ffffff" fill-opacity="0.3964475572738192" />
<circle cx="712.1536605829921" cy="1931.7875463915266" r="15.36618937864028" fill="#ffffff" fill-opacity="0.44853633216335775" />
<circle cx="631.8485622490713" cy="1485.0407508441017" r="13.8552750140592" fill="#ffffff" fill-opacity="0.16881156970570674" />

    </svg>