<svg xmlns="http://www.w3.org/2000/svg" viewBox="0 0 2000 2000">
       <defs>
         <radialGradient id="bokehGrad54">
             <stop offset="0%" stop-color="#ffffff" stop-opacity="1"/>
             <stop offset="100%" stop-color="#ffffff" stop-opacity="0"/>
         </radialGradient>
       </defs>
       <circle cx="870.9974058706189" cy="1373.715802500934" r="88.42269161170555" fill="#ffffff" fill-opacity="0.3968110299712023" />
<circle cx="1070.2385660039029" cy="1416.173616712239" r="10.688269121376415" fill="#ffffff" fill-opacity="0.5458724454159658" />
<circle cx="1893.6283775571205" cy="844.2400640162093" r="17.438617115783998" fill="#ffffff" fill-opacity="0.26598052884263235" />
<circle cx="924.2728254480803" cy="1465.3295513491892" r="18.937280824241157" fill="#ffffff" fill-opacity="0.2111165061470847" />
<circle cx="1912.6431501218667" cy="1952.2722268642215" r="46.47277331024021" fill="#ffffff" fill-opacity="0.2283068537917192" />
<circle cx="8.607197658442978" cy="1289.9005168008048" r="56.10420433946154" fill="#ffffff" fill-opacity="0.468029209550222" />
<circle cx="1018.0482097555907" cy="387.9249240514664" r="34.815950263510594" fill="#ffffff" fill-opacity="0.5550375692089679" />
<circle cx="852.7898292375467" cy="442.07232936982433" r="38.672180715592575" fill="#ffffff" fill-opacity="0.49847837000067985" />
<circle cx="1548.4057236152494" cy="1741.1431864991512" r="24.917604600106607" fill="#ffffff" fill-opacity="0.5469500234623543" />
<circle cx="118.12204537580229" cy="429.4604930938701" r="89.31420103301052" fill="#ffffff" fill-opacity="0.3507324990209305" />
<circle cx="1485.4683313091984" cy="545.8208281733463" r="49.69508666442242" fill="#ffffff" fill-opacity="0.17773721895359637" />
<circle cx="645.800838605926" cy="862.5033153295865" r="15.316325940095803" fill="#ffffff" fill-opacity="0.3668049316846187" />
<circle cx="49.952417601593744" cy="1643.0245309041861" r="36.776013430929105" fill="#ffffff" fill-opacity="0.10279149565713977" />
<circle cx="655.0781793002099" cy="1900.7381517410954" r="67.12922179182617" fill="#ffffff" fill-opacity="0.2335120205191755" />
<circle cx="950.4312380893285" cy="387.89702612316887" r="52.61982680810121" fill="#ffffff" fill-opacity="0.21289289594600527" />
<circle cx="516.449916832922" cy="1792.1098756704641" r="57.28540599938881" fill="#ffffff" fill-opacity="0.4347629218677561" />
<circle cx="16.933484610106355" cy="1697.8670167273276" r="26.577348055589518" fill="#ffffff" fill-opacity="0.5630524519114841" />
<circle cx="1056.8431311978845" cy="252.2302364039479" r="63.16777278391768" fill="#ffffff" fill-opacity="0.39206860807641875" />
<circle cx="129.41221820627692" cy="1448.0782116313912" r="82.20943744695913" fill="#ffffff" fill-opacity="0.32278488715134734" />
<circle cx="1395.0977694039193" cy="803.3129333665727" r="73.58272668774077" fill="#ffffff" fill-opacity="0.46270374526801317" />
<circle cx="619.0856080383629" cy="1479.1842213596676" r="10.05822130538153" fill="#ffffff" fill-opacity="0.23210487338912525" />
<circle cx="1467.5695824771287" cy="394.7975141442659" r="54.32692544668656" fill="#ffffff" fill-opacity="0.10422452331423324" />
<circle cx="160.9276788373355" cy="1330.1526875676814" r="71.77554590481122" fill="#ffffff" fill-opacity="0.5670021238181593" />
<circle cx="1165.6042929060093" cy="330.17857411718296" r="55.168182252722424" fill="#ffffff" fill-opacity="0.16852165466951216" />
<circle cx="1429.3396523289719" cy="646.3980147263784" r="42.21613419689145" fill="#ffffff" fill-opacity="0.45901030955798505" />
<circle cx="1457.4807680094834" cy="1663.8545632872717" r="68.28450042595009" fill="#ffffff" fill-opacity="0.5271110717290738" />
<circle cx="51.76005377424775" cy="558.5137861319336" r="19.208873386194078" fill="#ffffff" fill-opacity="0.4521791059415211" />
<circle cx="557.1002796364442" cy="1298.1403667611346" r="40.75889121910615" fill="#ffffff" fill-opacity="0.4904160269595691" />
<circle cx="1263.8413946149283" cy="1597.7808634241394" r="76.55154920047308" fill="#ffffff" fill-opacity="0.23903554514100087" />
<circle cx="445.75540240622604" cy="896.855366348048" r="41.915885727494754" fill="#ffffff" fill-opacity="0.23201495061563585" />
<circle cx="1497.0513825882538" cy="1733.4280329835385" r="30.069896067567594" fill="#ffffff" fill-opacity="0.2677043903661591" />
<circle cx="1519.0717797554585" cy="1405.54884473712" r="82.49715411633824" fill="#ffffff" fill-opacity="0.3183105488828727" />
<circle cx="1033.584722371895" cy="1247.1065273985123" r="75.21075052224126" fill="#ffffff" fill-opacity="0.14646505992415002" />
<circle cx="150.71125717081512" cy="367.8563047039494" r="13.992998026136387" fill="#ffffff" fill-opacity="0.14688425264963903" />
<circle cx="396.43648869335715" cy="1467.5604267041576" r="46.134309573984645" fill="#ffffff" fill-opacity="0.5889096138449693" />
<circle cx="920.7742178434255" cy="1729.9598035411475" r="23.601861119140153" fill="#ffffff" fill-opacity="0.13664415426695584" />
<circle cx="1590.0423403481561" cy="852.9400121507796" r="20.38491754103393" fill="#ffffff" fill-opacity="0.2579688854900296" />
<circle cx="1765.1678474326634" cy="680.0350901737942" r="58.38394329622921" fill="#ffffff" fill-opacity="0.13880386753120347" />
<circle cx="1095.4825926555063" cy="1618.6321534106407" r="12.628033589473668" fill="#ffffff" fill-opacity="0.271216819652204" />
<circle cx="216.26836474696321" cy="1518.7598600806878" r="70.70578677730137" fill="#ffffff" fill-opacity="0.4238110332586936" />

    </svg>