<svg xmlns="http://www.w3.org/2000/svg" viewBox="0 0 2000 2000">
       <defs>
         <radialGradient id="bokehGrad46">
             <stop offset="0%" stop-color="#ffffff" stop-opacity="1"/>
             <stop offset="100%" stop-color="#ffffff" stop-opacity="0"/>
         </radialGradient>
       </defs>
       <circle cx="1069.936577088442" cy="632.0325844941676" r="57.96777015239144" fill="#ffffff" fill-opacity="0.19226101046619645" />
<circle cx="1427.9723172237536" cy="876.7139704559213" r="49.57505912933229" fill="#ffffff" fill-opacity="0.3035871983165167" />
<circle cx="690.9075518518144" cy="1609.6963867080883" r="22.120491887398543" fill="#ffffff" fill-opacity="0.5236424677403739" />
<circle cx="1091.3942955521745" cy="909.3196757088904" r="58.642858434194295" fill="#ffffff" fill-opacity="0.24099917746881386" />
<circle cx="1425.1979346944745" cy="410.18695650778716" r="89.1749906425712" fill="#ffffff" fill-opacity="0.5887674571682292" />
<circle cx="665.3996280231196" cy="1474.270600479421" r="66.8683754055842" fill="#ffffff" fill-opacity="0.22860621711921467" />
<circle cx="129.59573111157675" cy="124.79218720959673" r="20.92871895400476" fill="#ffffff" fill-opacity="0.5109432695902899" />
<circle cx="277.4929582208521" cy="685.591375581821" r="29.376595402847148" fill="#ffffff" fill-opacity="0.16335450934426363" />
<circle cx="1130.809916936871" cy="446.44654720856437" r="56.83652149446442" fill="#ffffff" fill-opacity="0.20127804407938635" />
<circle cx="528.6495439371437" cy="1997.5983051155558" r="81.80095053635132" fill="#ffffff" fill-opacity="0.29897130124220406" />
<circle cx="1709.8818670562953" cy="405.68126452846644" r="65.4070314947157" fill="#ffffff" fill-opacity="0.5947871267693818" />
<circle cx="1958.4507259693432" cy="1268.0894487238716" r="30.740042724692252" fill="#ffffff" fill-opacity="0.16307981914637007" />
<circle cx="901.1843365731604" cy="1135.9667204908374" r="15.153626883539726" fill="#ffffff" fill-opacity="0.187840955213095" />
<circle cx="405.53738123021657" cy="1144.9607737587235" r="52.020989919764055" fill="#ffffff" fill-opacity="0.16087523974069282" />
<circle cx="293.15060083597945" cy="491.4684335474564" r="64.8163481062543" fill="#ffffff" fill-opacity="0.22124208723504932" />
<circle cx="1518.7524139066416" cy="1404.8553254950978" r="52.76887869117515" fill="#ffffff" fill-opacity="0.28153467215238814" />
<circle cx="601.7348132054634" cy="1704.9988565146623" r="12.402310989482963" fill="#ffffff" fill-opacity="0.10675534431468117" />
<circle cx="978.8945853615303" cy="1992.5009023408975" r="66.84980599867373" fill="#ffffff" fill-opacity="0.306339546308678" />
<circle cx="695.4902459827837" cy="899.8938236005293" r="21.987581717296855" fill="#ffffff" fill-opacity="0.4082372417292651" />
<circle cx="609.7175977415006" cy="77.51914319738074" r="70.78671952291452" fill="#ffffff" fill-opacity="0.5657425370805492" />
<circle cx="1668.4317528216886" cy="805.9154421308219" r="30.953397216842333" fill="#ffffff" fill-opacity="0.2703115373586348" />
<circle cx="786.1345863132658" cy="1820.6972727771013" r="23.074203896495042" fill="#ffffff" fill-opacity="0.4407105465112333" />
<circle cx="1211.7271691035446" cy="1749.5765486763962" r="39.50874427425197" fill="#ffffff" fill-opacity="0.11978704606725107" />
<circle cx="1254.967917626188" cy="993.0834375491064" r="57.18537603530368" fill="#ffffff" fill-opacity="0.14481989123614505" />
<circle cx="500.49203644716897" cy="1419.6436138170845" r="67.84392642777341" fill="#ffffff" fill-opacity="0.5017708751159171" />
<circle cx="1526.8828197059756" cy="435.2646409053562" r="77.49431741380658" fill="#ffffff" fill-opacity="0.5870607315514735" />
<circle cx="1296.3372575655976" cy="1431.558828521142" r="25.28748639753516" fill="#ffffff" fill-opacity="0.4652638934630021" />
<circle cx="1212.537542787569" cy="1413.5986760063204" r="25.604888132540378" fill="#ffffff" fill-opacity="0.19955416431311537" />
<circle cx="1612.642479581457" cy="1173.735002693751" r="41.904346880003935" fill="#ffffff" fill-opacity="0.5799228323653987" />
<circle cx="1862.180588751917" cy="1743.1506560974226" r="24.24369919347206" fill="#ffffff" fill-opacity="0.5516096165633841" />
<circle cx="539.1589549194063" cy="960.7631794654243" r="43.953135735223384" fill="#ffffff" fill-opacity="0.5936307023463228" />
<circle cx="1199.3761152193842" cy="1187.8485653554735" r="79.7321593264989" fill="#ffffff" fill-opacity="0.13918244389969506" />
<circle cx="119.3528649146871" cy="212.9984941424885" r="37.20756780662113" fill="#ffffff" fill-opacity="0.578022201201885" />
<circle cx="1255.2132634651527" cy="1225.9609186799703" r="45.950835321045275" fill="#ffffff" fill-opacity="0.4331850928824963" />
<circle cx="1708.7905436205085" cy="1268.0446676746872" r="73.69746875514726" fill="#ffffff" fill-opacity="0.3353731433626014" />
<circle cx="1757.8018490816637" cy="1867.2991911829288" r="77.48484462726778" fill="#ffffff" fill-opacity="0.418583405559807" />
<circle cx="1566.4462413978645" cy="1761.3490921786001" r="34.221605227930006" fill="#ffffff" fill-opacity="0.4433775313304099" />
<circle cx="911.4836667666697" cy="658.1355476299335" r="57.984044294881365" fill="#ffffff" fill-opacity="0.598310339305707" />
<circle cx="1652.746607677032" cy="1686.5005450693302" r="47.024330577165976" fill="#ffffff" fill-opacity="0.49109274223342914" />
<circle cx="1350.7015878733314" cy="1705.554185963362" r="50.880384016398814" fill="#ffffff" fill-opacity="0.19590848756889925" />

    </svg>