<svg xmlns="http://www.w3.org/2000/svg" viewBox="0 0 2000 2000">
       <defs>
         <radialGradient id="bokehGrad48">
             <stop offset="0%" stop-color="#ffffff" stop-opacity="1"/>
             <stop offset="100%" stop-color="#ffffff" stop-opacity="0"/>
         </radialGradient>
       </defs>
       <circle cx="55.18022638992193" cy="151.8528724375485" r="82.40139915855063" fill="#ffffff" fill-opacity="0.3898121701172559" />
<circle cx="904.3393135512885" cy="878.8365347968768" r="79.57410682455323" fill="#ffffff" fill-opacity="0.5435043516113927" />
<circle cx="1940.4420310761777" cy="662.3948362910146" r="21.421847646950177" fill="#ffffff" fill-opacity="0.3109377450012091" />
<circle cx="342.0170278254444" cy="717.546250786017" r="39.28454569226616" fill="#ffffff" fill-opacity="0.2819816444202401" />
<circle cx="143.2514365852251" cy="396.94416309643276" r="17.667562665931726" fill="#ffffff" fill-opacity="0.5627038106862149" />
<circle cx="892.9489908136217" cy="823.784582179288" r="45.14188212485674" fill="#ffffff" fill-opacity="0.26582222606242156" />
<circle cx="298.13742892224695" cy="1794.3443277720642" r="81.81148671775452" fill="#ffffff" fill-opacity="0.15088830609100853" />
<circle cx="1653.5604413450324" cy="1270.8922429198187" r="38.02504690907906" fill="#ffffff" fill-opacity="0.36698085379330636" />
<circle cx="96.15680325483744" cy="1599.5228963511704" r="72.96960865891575" fill="#ffffff" fill-opacity="0.5590693074776408" />
<circle cx="177.72893999186357" cy="1054.4289306382611" r="48.56548231572293" fill="#ffffff" fill-opacity="0.16503706351545547" />
<circle cx="565.691249724769" cy="1867.5838766241961" r="61.778831587437615" fill="#ffffff" fill-opacity="0.2948379970819409" />
<circle cx="262.95802727711816" cy="1681.493659803373" r="47.071347244067624" fill="#ffffff" fill-opacity="0.38668637278602425" />
<circle cx="933.9779800673442" cy="1699.3060678022334" r="35.03460876909546" fill="#ffffff" fill-opacity="0.30884274771713716" />
<circle cx="1897.4146323137231" cy="538.1381184085652" r="19.46727426548162" fill="#ffffff" fill-opacity="0.2711977750648672" />
<circle cx="1222.586115419233" cy="932.3212472250901" r="36.508862972189114" fill="#ffffff" fill-opacity="0.5718839419297981" />
<circle cx="1831.253363896776" cy="1522.9770774481508" r="22.56690027667976" fill="#ffffff" fill-opacity="0.17291363542275515" />
<circle cx="942.1636636336387" cy="1561.1121530795826" r="28.93369212229164" fill="#ffffff" fill-opacity="0.4766838450903521" />
<circle cx="506.1332550914146" cy="1122.9829934087124" r="38.34240517687239" fill="#ffffff" fill-opacity="0.250501107798734" />
<circle cx="375.64424393880233" cy="246.4543306870328" r="53.788515459940534" fill="#ffffff" fill-opacity="0.36695156731325784" />
<circle cx="1773.6038935513075" cy="1252.148341324805" r="46.9373341440449" fill="#ffffff" fill-opacity="0.5507898801757076" />
<circle cx="993.1659548264173" cy="1261.648230778933" r="75.6441120923368" fill="#ffffff" fill-opacity="0.24300180838259836" />
<circle cx="435.7210816737154" cy="1266.6115433178486" r="39.56253809796958" fill="#ffffff" fill-opacity="0.33091688996936963" />
<circle cx="113.24504657330436" cy="195.16715477012835" r="60.78555777761757" fill="#ffffff" fill-opacity="0.43230746173360124" />
<circle cx="1876.4514853545613" cy="1898.0015897909896" r="38.2063803304591" fill="#ffffff" fill-opacity="0.26905993182108257" />
<circle cx="1017.1920200771201" cy="1629.5096913234001" r="43.49801277991219" fill="#ffffff" fill-opacity="0.14822740775425045" />
<circle cx="374.1553690223651" cy="1249.2722652284135" r="52.639219481226135" fill="#ffffff" fill-opacity="0.2204385259627493" />
<circle cx="687.7715418256274" cy="593.2870342589507" r="38.2284954814446" fill="#ffffff" fill-opacity="0.11198489021677369" />
<circle cx="1073.204000628652" cy="1733.8035875631695" r="48.243429020926236" fill="#ffffff" fill-opacity="0.44489018262810254" />
<circle cx="1660.6064126638541" cy="483.75352652559786" r="32.4781768971351" fill="#ffffff" fill-opacity="0.45080407783342846" />
<circle cx="1182.2672813667923" cy="115.74415312761133" r="21.790397027326183" fill="#ffffff" fill-opacity="0.23319667786007833" />
<circle cx="1396.2869226865682" cy="1972.4278551989587" r="55.094841664625456" fill="#ffffff" fill-opacity="0.5292537998282063" />
<circle cx="650.0604383167721" cy="817.1422187381401" r="63.665080669926006" fill="#ffffff" fill-opacity="0.11615028348787035" />
<circle cx="1162.4063622026827" cy="735.0025689803839" r="15.524185725976123" fill="#ffffff" fill-opacity="0.13431221054825335" />
<circle cx="1649.5208322277322" cy="1926.3298997092606" r="15.044023602753924" fill="#ffffff" fill-opacity="0.2642394481774837" />
<circle cx="392.44972731390135" cy="234.08376784477113" r="17.961637627962304" fill="#ffffff" fill-opacity="0.10689745112712654" />
<circle cx="790.0155782010058" cy="1774.6228032694753" r="23.955408728495236" fill="#ffffff" fill-opacity="0.36411237025539334" />
<circle cx="1234.1063529260944" cy="1877.231339486093" r="35.81259009074821" fill="#ffffff" fill-opacity="0.27618024183745415" />
<circle cx="1362.8930215441599" cy="1021.8425901140669" r="84.30207973297817" fill="#ffffff" fill-opacity="0.26361476406254614" />
<circle cx="650.9070222442574" cy="343.12133071531514" r="75.27229936395118" fill="#ffffff" fill-opacity="0.1835971725111514" />
<circle cx="347.13335939361457" cy="759.9893583854622" r="81.24544794990169" fill="#ffffff" fill-opacity="0.5342954971076918" />

    </svg>