<svg xmlns="http://www.w3.org/2000/svg" viewBox="0 0 2000 2000">
       <defs>
         <radialGradient id="bokehGrad57">
             <stop offset="0%" stop-color="#ffffff" stop-opacity="1"/>
             <stop offset="100%" stop-color="#ffffff" stop-opacity="0"/>
         </radialGradient>
       </defs>
       <circle cx="969.8698778110635" cy="1210.5315280897837" r="53.37044164995167" fill="#ffffff" fill-opacity="0.4681584997729593" />
<circle cx="1047.7933144733468" cy="1819.2121560959797" r="63.03886203047913" fill="#ffffff" fill-opacity="0.4627071363935146" />
<circle cx="1187.367089058133" cy="87.05834059116602" r="75.13827609569017" fill="#ffffff" fill-opacity="0.46802324075698143" />
<circle cx="339.90795129967876" cy="1656.419340442301" r="83.15834125921914" fill="#ffffff" fill-opacity="0.4245268222441476" />
<circle cx="234.65855627133502" cy="287.8648312533687" r="30.890936554685624" fill="#ffffff" fill-opacity="0.48770768803143905" />
<circle cx="1953.5108789155418" cy="521.8149407590035" r="53.15975378650596" fill="#ffffff" fill-opacity="0.4328120342199486" />
<circle cx="1970.0035716638956" cy="977.4215624903517" r="65.03363792536847" fill="#ffffff" fill-opacity="0.3984040579318765" />
<circle cx="1225.5863437456458" cy="461.2732521615548" r="34.90762622546938" fill="#ffffff" fill-opacity="0.4542610262219141" />
<circle cx="647.8810979774547" cy="443.1469049754411" r="88.49896972629901" fill="#ffffff" fill-opacity="0.5259041011347665" />
<circle cx="1267.4547462725725" cy="713.7644621232268" r="41.05020143957109" fill="#ffffff" fill-opacity="0.20717547286126267" />
<circle cx="1051.0372696869333" cy="1885.3026041982614" r="62.622641315351345" fill="#ffffff" fill-opacity="0.3070068830590157" />
<circle cx="1869.1473443500588" cy="1548.554480584213" r="18.723508813041114" fill="#ffffff" fill-opacity="0.28840567713379905" />
<circle cx="1813.9370863348734" cy="1581.691088319485" r="74.09671721162987" fill="#ffffff" fill-opacity="0.3458748506720104" />
<circle cx="391.2316587991469" cy="1869.1584176271656" r="68.52821730445277" fill="#ffffff" fill-opacity="0.5894035865090308" />
<circle cx="554.9361769273744" cy="733.3066168052695" r="17.992506149403596" fill="#ffffff" fill-opacity="0.2808815060241281" />
<circle cx="697.2623133922384" cy="520.6509297998742" r="61.36316060203744" fill="#ffffff" fill-opacity="0.21889421058709738" />
<circle cx="1572.828607463608" cy="1700.1552992261923" r="89.53981333583752" fill="#ffffff" fill-opacity="0.41069038623121257" />
<circle cx="1197.794430673407" cy="509.0890595831046" r="12.840736561890331" fill="#ffffff" fill-opacity="0.13708626952917455" />
<circle cx="1194.6507720332118" cy="485.9825858229947" r="24.982591017479827" fill="#ffffff" fill-opacity="0.1334746839712372" />
<circle cx="236.33626156695064" cy="407.0911961327326" r="59.7436686404049" fill="#ffffff" fill-opacity="0.14226992991028262" />
<circle cx="877.2768925436285" cy="365.0320277940999" r="68.17222494010244" fill="#ffffff" fill-opacity="0.4355537800398993" />
<circle cx="1255.1256877373764" cy="1235.1440391047342" r="37.02409180885063" fill="#ffffff" fill-opacity="0.48836509331736033" />
<circle cx="43.074508368015074" cy="698.035860484675" r="14.28274458012809" fill="#ffffff" fill-opacity="0.4637993295402433" />
<circle cx="1474.252949714394" cy="1598.610589662528" r="68.76083180831316" fill="#ffffff" fill-opacity="0.19032919226593645" />
<circle cx="1321.2848064335308" cy="213.59104281773878" r="50.6053943801854" fill="#ffffff" fill-opacity="0.5492371372718026" />
<circle cx="194.97144138395117" cy="1580.2190794578771" r="24.510097387036474" fill="#ffffff" fill-opacity="0.5281169323006819" />
<circle cx="252.11664019182513" cy="271.9418646083771" r="32.28330872106873" fill="#ffffff" fill-opacity="0.32339541275898176" />
<circle cx="1989.7949207774802" cy="287.45190063643713" r="39.606394945769225" fill="#ffffff" fill-opacity="0.4610277629178815" />
<circle cx="455.01014249964777" cy="343.61258998379276" r="59.25857113298497" fill="#ffffff" fill-opacity="0.3095780291333148" />
<circle cx="1610.3506618631475" cy="61.650427721532395" r="47.826678191800426" fill="#ffffff" fill-opacity="0.5719872212224498" />
<circle cx="660.7427263538974" cy="1991.3752934600182" r="45.47885760639914" fill="#ffffff" fill-opacity="0.29053315717694894" />
<circle cx="1309.639863348012" cy="1661.2293892995021" r="14.68784794227532" fill="#ffffff" fill-opacity="0.5670913341738846" />
<circle cx="1442.4846996770104" cy="1084.469286062906" r="63.223758646679" fill="#ffffff" fill-opacity="0.12073282981511227" />
<circle cx="63.34010589600769" cy="1457.7252194877303" r="30.293492767531617" fill="#ffffff" fill-opacity="0.485160639726947" />
<circle cx="1315.998835202877" cy="1726.2589202413749" r="71.83940594641523" fill="#ffffff" fill-opacity="0.3920608251844556" />
<circle cx="257.52006528060934" cy="1523.5770852100022" r="25.83510225152417" fill="#ffffff" fill-opacity="0.5087607937125875" />
<circle cx="243.6950177218742" cy="1256.6348152520611" r="55.4905813364443" fill="#ffffff" fill-opacity="0.27701091894718544" />
<circle cx="48.74439263191177" cy="1343.9102029423805" r="33.676804378066294" fill="#ffffff" fill-opacity="0.45705705384445505" />
<circle cx="1522.6789116404364" cy="1886.9627767155632" r="54.211051393278645" fill="#ffffff" fill-opacity="0.17152893216789591" />
<circle cx="794.4724078690892" cy="126.20599664502686" r="62.91713583331119" fill="#ffffff" fill-opacity="0.46786574245573964" />

    </svg>