<svg xmlns="http://www.w3.org/2000/svg" viewBox="0 0 2000 2000">
       <defs>
         <radialGradient id="bokehGrad55">
             <stop offset="0%" stop-color="#ffffff" stop-opacity="1"/>
             <stop offset="100%" stop-color="#ffffff" stop-opacity="0"/>
         </radialGradient>
       </defs>
       <circle cx="993.062280657691" cy="1602.760098821678" r="51.51508535766275" fill="#ffffff" fill-opacity="0.47116157821475835" />
<circle cx="1699.5563240301549" cy="1173.248516100532" r="33.08957123267866" fill="#ffffff" fill-opacity="0.5059600867527287" />
<circle cx="1175.4911097769866" cy="363.310209637804" r="57.47012313707664" fill="#ffffff" fill-opacity="0.32649692244914263" />
<circle cx="358.0724687990695" cy="1349.0745895992543" r="26.330859259663573" fill="#ffffff" fill-opacity="0.10486395381591276" />
<circle cx="1525.3252880737969" cy="151.85184980461352" r="24.426660480678272" fill="#ffffff" fill-opacity="0.28409558455860595" />
<circle cx="655.2880141383264" cy="1188.8457737427902" r="57.24193918993369" fill="#ffffff" fill-opacity="0.49171712276551216" />
<circle cx="231.18573632718142" cy="67.48792317830832" r="14.574194982294308" fill="#ffffff" fill-opacity="0.3751918162445491" />
<circle cx="1665.792308275521" cy="1128.7807912106152" r="58.9140210215112" fill="#ffffff" fill-opacity="0.44382866252414244" />
<circle cx="814.4170905595018" cy="743.6308689886635" r="87.11510426673185" fill="#ffffff" fill-opacity="0.24370255928298304" />
<circle cx="1176.8076810628495" cy="853.3002604176158" r="82.67208170463549" fill="#ffffff" fill-opacity="0.27001127143156234" />
<circle cx="345.08814259893137" cy="1999.69041797715" r="83.25705743195019" fill="#ffffff" fill-opacity="0.3175947713998719" />
<circle cx="717.2703433733947" cy="532.5220679465576" r="38.743136082231445" fill="#ffffff" fill-opacity="0.5812434263788258" />
<circle cx="1996.4578916126504" cy="833.5925073962965" r="79.51787275458994" fill="#ffffff" fill-opacity="0.1196825710206009" />
<circle cx="1428.9191686562945" cy="1279.37152908697" r="32.612880374192045" fill="#ffffff" fill-opacity="0.31771142001091557" />
<circle cx="438.81061580495384" cy="1982.1657342058322" r="18.429287649386275" fill="#ffffff" fill-opacity="0.452171082749386" />
<circle cx="1764.612510247459" cy="1135.0852892329222" r="61.23353791977073" fill="#ffffff" fill-opacity="0.14056693019613206" />
<circle cx="1902.3991271032087" cy="1631.0372869530624" r="26.222897197272523" fill="#ffffff" fill-opacity="0.30922646117453345" />
<circle cx="1138.1363359693175" cy="1899.909743579143" r="21.61272316113837" fill="#ffffff" fill-opacity="0.4317976295875887" />
<circle cx="1602.4828570304342" cy="108.15534848170039" r="33.90177297319789" fill="#ffffff" fill-opacity="0.20010584883769952" />
<circle cx="1748.5651084480646" cy="1376.5977291833078" r="23.591702155938876" fill="#ffffff" fill-opacity="0.3083962527037091" />
<circle cx="1450.1280713059314" cy="1798.7256544436113" r="52.0351776903361" fill="#ffffff" fill-opacity="0.12047124010695512" />
<circle cx="453.697851780823" cy="763.3827495135268" r="19.750445060198302" fill="#ffffff" fill-opacity="0.5660287238934597" />
<circle cx="1972.8093270013767" cy="1142.2647239374871" r="19.429611586413394" fill="#ffffff" fill-opacity="0.21186407259037346" />
<circle cx="1702.5473104131634" cy="1369.2701607337824" r="86.20661279032053" fill="#ffffff" fill-opacity="0.5972997685021831" />
<circle cx="1081.7449825542935" cy="359.04235542335397" r="44.47932995253912" fill="#ffffff" fill-opacity="0.5479843170833978" />
<circle cx="1425.8041955026938" cy="789.8104700956394" r="64.2664479556295" fill="#ffffff" fill-opacity="0.5588016947600217" />
<circle cx="501.9898480315299" cy="834.6247081556803" r="87.70956822648684" fill="#ffffff" fill-opacity="0.3595825247909681" />
<circle cx="1429.8355088368753" cy="133.8146056953937" r="16.09792432387148" fill="#ffffff" fill-opacity="0.19597916610761854" />
<circle cx="501.1940919810709" cy="641.5014594078692" r="44.028162913209286" fill="#ffffff" fill-opacity="0.2853310093545599" />
<circle cx="1237.8250774399708" cy="1231.406060092685" r="61.895071491569226" fill="#ffffff" fill-opacity="0.5291646406542706" />
<circle cx="956.7616059069109" cy="1371.455444284367" r="40.69254606202756" fill="#ffffff" fill-opacity="0.46907168880327155" />
<circle cx="1919.6303295602572" cy="1390.2976445020533" r="21.88391097884586" fill="#ffffff" fill-opacity="0.4946029762693275" />
<circle cx="880.3595571144376" cy="131.31753579966121" r="25.689385620073033" fill="#ffffff" fill-opacity="0.1585989498022278" />
<circle cx="1395.9106491864472" cy="655.7795995517886" r="24.824150137451333" fill="#ffffff" fill-opacity="0.19749855414343762" />
<circle cx="1592.3609336271322" cy="279.21363107486275" r="38.2408780676856" fill="#ffffff" fill-opacity="0.48800780458712334" />
<circle cx="1840.8235230828714" cy="447.75726305995556" r="18.737991192359758" fill="#ffffff" fill-opacity="0.4521612041880564" />
<circle cx="1406.0898090348169" cy="636.6196486941689" r="78.4822294725505" fill="#ffffff" fill-opacity="0.25881477925726426" />
<circle cx="1575.5131876744658" cy="692.8088072162521" r="16.09262952475693" fill="#ffffff" fill-opacity="0.4264944509069305" />
<circle cx="970.5266435021158" cy="934.8241507261223" r="78.42726533854075" fill="#ffffff" fill-opacity="0.10598154550207126" />
<circle cx="1057.3376106954795" cy="1417.27547458094" r="44.640725735540244" fill="#ffffff" fill-opacity="0.5271797540202623" />

    </svg>