<svg xmlns="http://www.w3.org/2000/svg" viewBox="0 0 2000 2000">
       <defs>
         <radialGradient id="bokehGrad37">
             <stop offset="0%" stop-color="#ffffff" stop-opacity="1"/>
             <stop offset="100%" stop-color="#ffffff" stop-opacity="0"/>
         </radialGradient>
       </defs>
       <circle cx="490.5465856591251" cy="1178.3564345013608" r="44.13817186431548" fill="#ffffff" fill-opacity="0.30959863456062575" />
<circle cx="1872.7605136659852" cy="1683.5137192219365" r="15.563470461416644" fill="#ffffff" fill-opacity="0.10461028630967109" />
<circle cx="1475.013657811037" cy="483.5158618625244" r="50.65304768160602" fill="#ffffff" fill-opacity="0.160600020212901" />
<circle cx="1354.872748707687" cy="1687.4359600158323" r="53.760842926750584" fill="#ffffff" fill-opacity="0.43680903714327235" />
<circle cx="1075.5342634577298" cy="1575.7539089954614" r="11.759016727088598" fill="#ffffff" fill-opacity="0.14606186494469328" />
<circle cx="1461.6333629358485" cy="1474.7433814030253" r="42.422851326759" fill="#ffffff" fill-opacity="0.417492990182208" />
<circle cx="1921.8497729814724" cy="548.784272104615" r="74.01801582810282" fill="#ffffff" fill-opacity="0.1963497598873847" />
<circle cx="1590.1194121915007" cy="681.1722944733434" r="55.66986138424987" fill="#ffffff" fill-opacity="0.10421588291334413" />
<circle cx="561.625224908306" cy="354.7265445809047" r="25.917323545394197" fill="#ffffff" fill-opacity="0.4485318827389385" />
<circle cx="451.5816507066712" cy="250.96718559638975" r="76.59559059099328" fill="#ffffff" fill-opacity="0.45668547535503234" />
<circle cx="561.6953711794781" cy="1347.300139310233" r="27.723749397378413" fill="#ffffff" fill-opacity="0.5270771924443932" />
<circle cx="1862.6513597181727" cy="1479.231485711122" r="82.13511190975044" fill="#ffffff" fill-opacity="0.5023968329463253" />
<circle cx="1236.2138544547954" cy="156.3728491259291" r="72.8516508301348" fill="#ffffff" fill-opacity="0.16676942087859783" />
<circle cx="878.6167162233731" cy="1702.560793334455" r="23.68972310182236" fill="#ffffff" fill-opacity="0.12861070551936585" />
<circle cx="260.38933194994127" cy="913.2688893863403" r="54.602516705020776" fill="#ffffff" fill-opacity="0.5182261928202576" />
<circle cx="824.8129347650199" cy="357.69261650521656" r="57.578791234854435" fill="#ffffff" fill-opacity="0.5560015417964919" />
<circle cx="1596.3816022831575" cy="1711.1656648643332" r="28.297693053637687" fill="#ffffff" fill-opacity="0.44413280005571" />
<circle cx="1332.6447309629511" cy="266.9687797686593" r="55.42048550678392" fill="#ffffff" fill-opacity="0.32447435595169327" />
<circle cx="1825.8080575701338" cy="1615.040143848868" r="68.58243571523315" fill="#ffffff" fill-opacity="0.3035525510938547" />
<circle cx="573.4330659346587" cy="1560.7852699234354" r="33.20844430091828" fill="#ffffff" fill-opacity="0.4632162335458453" />
<circle cx="1932.4502990705257" cy="967.2239323851297" r="10.593839192484422" fill="#ffffff" fill-opacity="0.2555618768456528" />
<circle cx="781.0216375913242" cy="1302.3353916930923" r="25.21913491095356" fill="#ffffff" fill-opacity="0.40994463169209705" />
<circle cx="1371.6101661053822" cy="138.3531397020037" r="46.28949917931479" fill="#ffffff" fill-opacity="0.13674223817691286" />
<circle cx="1527.6974787852744" cy="1462.8821411012023" r="14.718203234545522" fill="#ffffff" fill-opacity="0.5328191526553729" />
<circle cx="316.40910746612104" cy="1028.3319712543084" r="43.90409258632191" fill="#ffffff" fill-opacity="0.5658976796381812" />
<circle cx="1563.7732249375395" cy="439.3360899981329" r="30.863682733387225" fill="#ffffff" fill-opacity="0.5573070148141663" />
<circle cx="490.0104015809905" cy="1760.8578707992726" r="80.19364592701943" fill="#ffffff" fill-opacity="0.26920312292917037" />
<circle cx="1945.3411840359431" cy="154.7056999262486" r="58.37115705075484" fill="#ffffff" fill-opacity="0.4049007107324154" />
<circle cx="1721.1603770144307" cy="1951.2194931327108" r="37.33956765208225" fill="#ffffff" fill-opacity="0.2512011820081763" />
<circle cx="898.7093950792499" cy="630.9248047216284" r="36.22773588272998" fill="#ffffff" fill-opacity="0.504890108011522" />
<circle cx="1962.5562202028252" cy="765.6713337395042" r="55.84911389325211" fill="#ffffff" fill-opacity="0.14934435569684965" />
<circle cx="1833.430380886696" cy="950.1921035768786" r="35.70418124824403" fill="#ffffff" fill-opacity="0.5542115189408552" />
<circle cx="375.62168655390303" cy="661.5628117735608" r="34.309169405664804" fill="#ffffff" fill-opacity="0.27343200781771415" />
<circle cx="625.3255056677574" cy="1114.5414173950235" r="39.80658060900393" fill="#ffffff" fill-opacity="0.4280549920732343" />
<circle cx="638.9433530849666" cy="351.479495653777" r="13.606743467858333" fill="#ffffff" fill-opacity="0.5547533876344669" />
<circle cx="762.879493623414" cy="273.9335693309417" r="72.78648891905964" fill="#ffffff" fill-opacity="0.2897834266581476" />
<circle cx="146.61210311717164" cy="1630.247506562893" r="64.26041065913405" fill="#ffffff" fill-opacity="0.426792469794535" />
<circle cx="1402.9294786751518" cy="1684.0154559458404" r="81.24743014155214" fill="#ffffff" fill-opacity="0.31952994262944967" />
<circle cx="432.56083575285385" cy="1199.1362257593596" r="76.64813501369122" fill="#ffffff" fill-opacity="0.4298854764706954" />
<circle cx="119.32860584987459" cy="838.4406091163526" r="27.184804190450098" fill="#ffffff" fill-opacity="0.40562941772639505" />

    </svg>