<svg xmlns="http://www.w3.org/2000/svg" viewBox="0 0 2000 2000">
       <defs>
         <radialGradient id="bokehGrad34">
             <stop offset="0%" stop-color="#ffffff" stop-opacity="1"/>
             <stop offset="100%" stop-color="#ffffff" stop-opacity="0"/>
         </radialGradient>
       </defs>
       <circle cx="724.6268353882208" cy="1661.9035066546105" r="28.60356047540226" fill="#ffffff" fill-opacity="0.41195267674910496" />
<circle cx="1878.8562606142286" cy="1442.5429919614064" r="29.433760304731127" fill="#ffffff" fill-opacity="0.4223774516045177" />
<circle cx="1980.8357718384543" cy="64.39311870977815" r="11.033115051127051" fill="#ffffff" fill-opacity="0.24022459386237935" />
<circle cx="1920.347378851208" cy="771.1483991690982" r="55.329685452063245" fill="#ffffff" fill-opacity="0.12899187742385462" />
<circle cx="967.6246382778378" cy="656.737835193282" r="80.80510904190301" fill="#ffffff" fill-opacity="0.15604616789626238" />
<circle cx="851.3511594826892" cy="119.49217226621568" r="23.785851586140218" fill="#ffffff" fill-opacity="0.1511079564422292" />
<circle cx="776.8498261876764" cy="934.9978109066298" r="54.61952783306173" fill="#ffffff" fill-opacity="0.5264468632619085" />
<circle cx="727.9501051607027" cy="777.4955974854862" r="62.76781642620092" fill="#ffffff" fill-opacity="0.5800132062770896" />
<circle cx="475.8368450828971" cy="1417.5971712675855" r="34.8393228242556" fill="#ffffff" fill-opacity="0.5300543754942729" />
<circle cx="920.2577830547172" cy="1827.1594644579618" r="50.757590468209266" fill="#ffffff" fill-opacity="0.19707739069639815" />
<circle cx="569.1418601246114" cy="1737.8579742494176" r="29.047094968941877" fill="#ffffff" fill-opacity="0.5593848608686218" />
<circle cx="565.871625822405" cy="592.7200098682767" r="54.02610359050085" fill="#ffffff" fill-opacity="0.2996148603644492" />
<circle cx="880.6826122291241" cy="58.70105423061101" r="52.10211699879858" fill="#ffffff" fill-opacity="0.2726952105111963" />
<circle cx="814.8450167980776" cy="1366.7789984822875" r="76.48294515922146" fill="#ffffff" fill-opacity="0.16142052385163322" />
<circle cx="936.9024598285088" cy="763.8404456496905" r="32.580321967858964" fill="#ffffff" fill-opacity="0.35400761783484125" />
<circle cx="925.577100561662" cy="521.0704121494045" r="55.201813147637694" fill="#ffffff" fill-opacity="0.16097434768100585" />
<circle cx="795.8865052160818" cy="539.0707949818452" r="51.597591853270195" fill="#ffffff" fill-opacity="0.29485090018124294" />
<circle cx="1420.977431571911" cy="816.1286696245842" r="32.8787286815885" fill="#ffffff" fill-opacity="0.34621953799286564" />
<circle cx="1268.493076305691" cy="634.0226059921647" r="68.07787219575462" fill="#ffffff" fill-opacity="0.28640051585801374" />
<circle cx="1103.7274412229347" cy="166.72796708799353" r="44.1778465103691" fill="#ffffff" fill-opacity="0.20056485502370167" />
<circle cx="1356.2295322608907" cy="1811.3290008486565" r="41.54526884442607" fill="#ffffff" fill-opacity="0.207034785183033" />
<circle cx="1639.3321788970513" cy="96.11437780372967" r="18.106219932693406" fill="#ffffff" fill-opacity="0.401539394974219" />
<circle cx="1618.6426400533644" cy="789.1071292603647" r="50.697166028778405" fill="#ffffff" fill-opacity="0.11725691182945722" />
<circle cx="24.133810745978312" cy="1998.1825240220242" r="54.6604389783228" fill="#ffffff" fill-opacity="0.3585297798392443" />
<circle cx="1114.3373288988626" cy="181.83019545784185" r="88.73590834680101" fill="#ffffff" fill-opacity="0.4604479628252981" />
<circle cx="1612.7814176412712" cy="1222.4798003196772" r="42.138244686961755" fill="#ffffff" fill-opacity="0.4992248305102017" />
<circle cx="721.6651355238994" cy="761.6491180571132" r="66.93019431304239" fill="#ffffff" fill-opacity="0.5045029339139647" />
<circle cx="473.44118886282183" cy="643.8199597558054" r="20.297253653805125" fill="#ffffff" fill-opacity="0.2796975840355542" />
<circle cx="1200.6849993591316" cy="413.55489321868123" r="55.45964465120672" fill="#ffffff" fill-opacity="0.18169666218202715" />
<circle cx="1252.3291342681807" cy="670.24370685511" r="66.63908245858684" fill="#ffffff" fill-opacity="0.40757465901676393" />
<circle cx="184.01747922015943" cy="1593.0944095500688" r="74.01160302357701" fill="#ffffff" fill-opacity="0.3217849173330388" />
<circle cx="31.180559331502877" cy="1738.9287174646304" r="43.056265886308324" fill="#ffffff" fill-opacity="0.1292198494200695" />
<circle cx="93.33576557784973" cy="1794.9195959274425" r="33.87083657770496" fill="#ffffff" fill-opacity="0.1206549547856842" />
<circle cx="1453.8164109951665" cy="1069.1197443424674" r="44.857896464783636" fill="#ffffff" fill-opacity="0.25814010604362525" />
<circle cx="204.19839524800244" cy="1245.9079825107135" r="24.659601885888513" fill="#ffffff" fill-opacity="0.5639091706095134" />
<circle cx="1858.9508967665756" cy="499.55493167704776" r="27.868127047336753" fill="#ffffff" fill-opacity="0.294700264709553" />
<circle cx="1293.0648317609682" cy="443.1154714712868" r="88.259357487183" fill="#ffffff" fill-opacity="0.5636179915479709" />
<circle cx="1135.1994336563712" cy="644.686980712395" r="60.65914518442945" fill="#ffffff" fill-opacity="0.3674382609431519" />
<circle cx="611.5470870333244" cy="1095.5739715759862" r="24.47164461768045" fill="#ffffff" fill-opacity="0.11779387411895484" />
<circle cx="1381.0163956017338" cy="109.04972643916454" r="73.71705497923256" fill="#ffffff" fill-opacity="0.4223857514381353" />

    </svg>