<svg xmlns="http://www.w3.org/2000/svg" viewBox="0 0 2000 2000">
       <defs>
         <radialGradient id="bokehGrad53">
             <stop offset="0%" stop-color="#ffffff" stop-opacity="1"/>
             <stop offset="100%" stop-color="#ffffff" stop-opacity="0"/>
         </radialGradient>
       </defs>
       <circle cx="1584.86955528891" cy="1756.462042225202" r="60.94915900483487" fill="#ffffff" fill-opacity="0.41331735190287655" />
<circle cx="163.60642721570252" cy="897.9165018121217" r="35.93243795971537" fill="#ffffff" fill-opacity="0.28839980670676746" />
<circle cx="1886.085215857949" cy="1407.053743506651" r="41.9528592864669" fill="#ffffff" fill-opacity="0.2754578677795637" />
<circle cx="916.0764912801958" cy="1118.8928220784157" r="53.78851378015391" fill="#ffffff" fill-opacity="0.12592754699985279" />
<circle cx="605.3797715748284" cy="900.8446219002894" r="20.197468942814545" fill="#ffffff" fill-opacity="0.5280588349261433" />
<circle cx="278.1750783906804" cy="1028.5669519574017" r="13.889414528573605" fill="#ffffff" fill-opacity="0.5880556739445036" />
<circle cx="1350.3638145361085" cy="133.62890866205214" r="80.75155614490221" fill="#ffffff" fill-opacity="0.48108236723945697" />
<circle cx="430.64310252461956" cy="200.25871472903978" r="39.72980922553478" fill="#ffffff" fill-opacity="0.5606621669040053" />
<circle cx="1398.4045571645772" cy="1576.6923516146717" r="34.541399093509696" fill="#ffffff" fill-opacity="0.394400040499141" />
<circle cx="139.24498286135488" cy="1753.3913618180861" r="77.31419708031692" fill="#ffffff" fill-opacity="0.5175410202725479" />
<circle cx="1264.9814219141385" cy="1355.1671145073817" r="84.24343947449148" fill="#ffffff" fill-opacity="0.45861515800787855" />
<circle cx="527.9033422489931" cy="516.4706018622189" r="27.49777043119132" fill="#ffffff" fill-opacity="0.13379943330541552" />
<circle cx="18.30772022367011" cy="1621.4069990220808" r="39.947181419914855" fill="#ffffff" fill-opacity="0.4083129556666888" />
<circle cx="536.1782374623809" cy="619.3682162459961" r="31.76643663102218" fill="#ffffff" fill-opacity="0.46410896120297906" />
<circle cx="1167.8410570048482" cy="1702.0294580566422" r="37.591067140086494" fill="#ffffff" fill-opacity="0.4938293625131007" />
<circle cx="622.2757979136553" cy="1580.972027381714" r="12.064185268432608" fill="#ffffff" fill-opacity="0.16465953166193878" />
<circle cx="1344.8814262117992" cy="1062.6077700792455" r="51.37827516760605" fill="#ffffff" fill-opacity="0.19075457652031494" />
<circle cx="378.7588126907793" cy="1738.809288119398" r="30.400730953892126" fill="#ffffff" fill-opacity="0.3565486497506878" />
<circle cx="585.7979142204408" cy="1182.7250409509322" r="32.93015081332352" fill="#ffffff" fill-opacity="0.5671847934818022" />
<circle cx="854.6318516254388" cy="1548.7383049149387" r="68.08893273522509" fill="#ffffff" fill-opacity="0.32228741973315433" />
<circle cx="1533.4186669593942" cy="655.8296442776059" r="70.2426942978779" fill="#ffffff" fill-opacity="0.20832885751938726" />
<circle cx="153.43210480892776" cy="362.15091735239423" r="12.611820311701223" fill="#ffffff" fill-opacity="0.34587549918406557" />
<circle cx="1057.5466033967014" cy="1205.199331966681" r="44.332737355030886" fill="#ffffff" fill-opacity="0.24900986753300494" />
<circle cx="1802.5161690845373" cy="1973.2426017317134" r="57.33896782039157" fill="#ffffff" fill-opacity="0.3750379385532385" />
<circle cx="800.8802781882782" cy="87.76254101619507" r="15.831017459277685" fill="#ffffff" fill-opacity="0.5434103357104116" />
<circle cx="1853.4570006305253" cy="1128.308682079788" r="18.01543611865739" fill="#ffffff" fill-opacity="0.2899030750945797" />
<circle cx="551.4107328212274" cy="1008.2158210115771" r="43.23396376344562" fill="#ffffff" fill-opacity="0.3964671544309971" />
<circle cx="588.9980112842484" cy="433.3388617707217" r="60.544432315244315" fill="#ffffff" fill-opacity="0.25114223110919975" />
<circle cx="469.98520285506817" cy="1096.5962382888572" r="63.11054324750014" fill="#ffffff" fill-opacity="0.27798599566732696" />
<circle cx="62.502140953174965" cy="1223.5602883060467" r="64.83192667067922" fill="#ffffff" fill-opacity="0.23287809302283494" />
<circle cx="764.0220026578977" cy="351.15314386128296" r="42.3091045898535" fill="#ffffff" fill-opacity="0.5932845065185524" />
<circle cx="1240.28540139885" cy="118.36753544410405" r="16.042304139494455" fill="#ffffff" fill-opacity="0.4971412086733903" />
<circle cx="744.1016503038551" cy="1699.5280514339313" r="20.92436448698532" fill="#ffffff" fill-opacity="0.22530706714402507" />
<circle cx="905.0402799818951" cy="1220.045015077942" r="49.905219683441544" fill="#ffffff" fill-opacity="0.19131954921137082" />
<circle cx="937.2413517143381" cy="1065.1800198287012" r="12.895640987583157" fill="#ffffff" fill-opacity="0.25569399638169066" />
<circle cx="447.8193518044107" cy="1404.2536666223325" r="15.330787743741379" fill="#ffffff" fill-opacity="0.35551230469385764" />
<circle cx="1016.2043737320316" cy="394.9156275953991" r="74.06282892894124" fill="#ffffff" fill-opacity="0.13034734353882318" />
<circle cx="1329.4025441876804" cy="1911.5966121283266" r="60.89158044613268" fill="#ffffff" fill-opacity="0.4557287976940896" />
<circle cx="1929.2044360493842" cy="1561.713106188696" r="15.061503691307614" fill="#ffffff" fill-opacity="0.2617781233514238" />
<circle cx="453.27030949586145" cy="1226.261604716462" r="16.15899761320246" fill="#ffffff" fill-opacity="0.3239833469347121" />

    </svg>