<svg xmlns="http://www.w3.org/2000/svg" viewBox="0 0 2000 2000">
       <defs>
         <radialGradient id="bokehGrad36">
             <stop offset="0%" stop-color="#ffffff" stop-opacity="1"/>
             <stop offset="100%" stop-color="#ffffff" stop-opacity="0"/>
         </radialGradient>
       </defs>
       <circle cx="444.1597216092792" cy="1749.2600461852276" r="69.76683946289313" fill="#ffffff" fill-opacity="0.46165653763966674" />
<circle cx="855.9380582467895" cy="578.1084572498128" r="17.630283687429788" fill="#ffffff" fill-opacity="0.17890018679653638" />
<circle cx="932.2407910242707" cy="1507.4533519878737" r="17.485271704520677" fill="#ffffff" fill-opacity="0.14162590258807514" />
<circle cx="616.788458366486" cy="768.75024461817" r="18.304569349789304" fill="#ffffff" fill-opacity="0.4185399090606603" />
<circle cx="168.6088257123175" cy="567.9035169960731" r="29.75083716537192" fill="#ffffff" fill-opacity="0.4255360613534298" />
<circle cx="145.24735047758352" cy="1685.548637046088" r="11.217592012022095" fill="#ffffff" fill-opacity="0.11700060734706766" />
<circle cx="1632.3823590095708" cy="1725.4250092645984" r="80.72790080667815" fill="#ffffff" fill-opacity="0.4648672411810012" />
<circle cx="26.21563873455557" cy="1818.9326089577353" r="11.215390280422195" fill="#ffffff" fill-opacity="0.32015938803964683" />
<circle cx="682.108674272756" cy="567.85236238142" r="66.66248003746439" fill="#ffffff" fill-opacity="0.18602004171204303" />
<circle cx="1500.9234782963983" cy="468.916609947208" r="18.528498683846728" fill="#ffffff" fill-opacity="0.4166970325200423" />
<circle cx="210.76742148817274" cy="442.45898769558977" r="71.17020494866816" fill="#ffffff" fill-opacity="0.1817153944610526" />
<circle cx="1768.6863020503165" cy="1257.5784728795795" r="24.656233060272523" fill="#ffffff" fill-opacity="0.36498985516326843" />
<circle cx="743.5088068077338" cy="1228.6501580513107" r="72.00302139035699" fill="#ffffff" fill-opacity="0.5653596108393867" />
<circle cx="1740.2443801228546" cy="338.0396624823556" r="25.58699385788179" fill="#ffffff" fill-opacity="0.45967788903827245" />
<circle cx="318.49804615059793" cy="1942.0889396758223" r="68.20995726028133" fill="#ffffff" fill-opacity="0.5462113172395734" />
<circle cx="633.1446312637274" cy="285.71786165799784" r="79.94998612669899" fill="#ffffff" fill-opacity="0.10677054938790911" />
<circle cx="438.2585660378988" cy="414.9451397124697" r="50.14544060265783" fill="#ffffff" fill-opacity="0.36548172219797537" />
<circle cx="472.5916943570623" cy="607.4097065106545" r="14.554181073405958" fill="#ffffff" fill-opacity="0.4204545321058748" />
<circle cx="114.84948191859789" cy="1910.2321547828667" r="36.07809697311467" fill="#ffffff" fill-opacity="0.26650962519792465" />
<circle cx="940.3108343814674" cy="315.03725546496497" r="46.521378935034754" fill="#ffffff" fill-opacity="0.5222089957098556" />
<circle cx="86.43738170804127" cy="1427.4302474724302" r="42.581251483166405" fill="#ffffff" fill-opacity="0.5127199085532357" />
<circle cx="240.36422915590472" cy="137.67882813164277" r="10.203600525561152" fill="#ffffff" fill-opacity="0.5976944289887616" />
<circle cx="166.07521028542837" cy="678.6486481350769" r="56.181572093022865" fill="#ffffff" fill-opacity="0.4437475214939619" />
<circle cx="473.5100275273858" cy="515.3591209794797" r="83.41924278495195" fill="#ffffff" fill-opacity="0.3609761465798692" />
<circle cx="1107.6433385345456" cy="35.65312622833328" r="23.796583616842916" fill="#ffffff" fill-opacity="0.3744384790323916" />
<circle cx="1936.228118324278" cy="193.949315253245" r="73.94371165366559" fill="#ffffff" fill-opacity="0.44369435806477486" />
<circle cx="586.5958113705499" cy="633.8590884665742" r="31.735728968958785" fill="#ffffff" fill-opacity="0.3736917493302635" />
<circle cx="394.5748761096091" cy="1514.7899382455334" r="21.13518538947071" fill="#ffffff" fill-opacity="0.24596192003105252" />
<circle cx="1899.5450979493191" cy="1361.139557929174" r="59.171340475530904" fill="#ffffff" fill-opacity="0.5547469531430208" />
<circle cx="1633.3483798518316" cy="1602.5011435695794" r="81.30273789697833" fill="#ffffff" fill-opacity="0.2746623777660202" />
<circle cx="1576.9494665994343" cy="1470.9754409142054" r="70.51535324069917" fill="#ffffff" fill-opacity="0.10692179761767531" />
<circle cx="1609.8549479018884" cy="52.51021239467235" r="35.9022007260392" fill="#ffffff" fill-opacity="0.38046833625019183" />
<circle cx="749.7295266514969" cy="1122.4951872171537" r="29.226359645343123" fill="#ffffff" fill-opacity="0.1676104167272199" />
<circle cx="1166.3135386266163" cy="1782.4004478243205" r="76.03842386028445" fill="#ffffff" fill-opacity="0.5353471346137985" />
<circle cx="1291.6010999045561" cy="808.2573681685017" r="22.50564493750727" fill="#ffffff" fill-opacity="0.1589014481157299" />
<circle cx="67.68017869555499" cy="1752.3510370407455" r="85.63759904101171" fill="#ffffff" fill-opacity="0.32008564390876726" />
<circle cx="903.2552104649534" cy="1806.2367178501888" r="56.164303089986035" fill="#ffffff" fill-opacity="0.156594455719077" />
<circle cx="1446.5263396550522" cy="803.7712008213016" r="28.94811523672378" fill="#ffffff" fill-opacity="0.37710752739457243" />
<circle cx="1460.4582895529886" cy="264.9250244441843" r="84.23616851088201" fill="#ffffff" fill-opacity="0.26109333143493374" />
<circle cx="481.0305856176629" cy="25.86947069808465" r="13.82476996172433" fill="#ffffff" fill-opacity="0.45024754612943274" />

    </svg>