<svg xmlns="http://www.w3.org/2000/svg" viewBox="0 0 2000 2000">
       <defs>
         <radialGradient id="bokehGrad32">
             <stop offset="0%" stop-color="#ffffff" stop-opacity="1"/>
             <stop offset="100%" stop-color="#ffffff" stop-opacity="0"/>
         </radialGradient>
       </defs>
       <circle cx="1560.224347375727" cy="1167.5701695174387" r="30.378075389025632" fill="#ffffff" fill-opacity="0.45728999289274785" />
<circle cx="1472.9519591884027" cy="1560.5992801964253" r="89.45752639492727" fill="#ffffff" fill-opacity="0.552270917145362" />
<circle cx="145.99205133078553" cy="823.9869142700802" r="61.91645495454474" fill="#ffffff" fill-opacity="0.2939255399809112" />
<circle cx="1902.7183567228026" cy="494.76782937822185" r="57.385228703692455" fill="#ffffff" fill-opacity="0.5459672152597249" />
<circle cx="984.0304981940724" cy="1808.638690157106" r="23.48985379087054" fill="#ffffff" fill-opacity="0.21079323014029597" />
<circle cx="949.8702083012857" cy="609.5984123377556" r="59.34375444259232" fill="#ffffff" fill-opacity="0.4480837572945616" />
<circle cx="202.53162663343315" cy="1307.722103518747" r="81.19734158208168" fill="#ffffff" fill-opacity="0.3804812069923249" />
<circle cx="303.7324647280817" cy="1283.5445526904389" r="13.526692758726355" fill="#ffffff" fill-opacity="0.139396568006623" />
<circle cx="1625.4865670822242" cy="1437.2194892005746" r="84.38330210741795" fill="#ffffff" fill-opacity="0.16986376508303405" />
<circle cx="603.0696639314506" cy="822.1690727247699" r="79.55530146574625" fill="#ffffff" fill-opacity="0.5633214088601416" />
<circle cx="1982.6704993755752" cy="1799.6356400333084" r="47.62621298275534" fill="#ffffff" fill-opacity="0.2968569743832584" />
<circle cx="1306.545193837707" cy="962.9046253053862" r="35.70616298336587" fill="#ffffff" fill-opacity="0.14805709086297084" />
<circle cx="384.04547790126566" cy="765.5940729182307" r="10.552180449437119" fill="#ffffff" fill-opacity="0.22208559334301783" />
<circle cx="1045.1838323454406" cy="870.3937122037344" r="51.42791204857603" fill="#ffffff" fill-opacity="0.1814938401465894" />
<circle cx="642.1964160221338" cy="1129.1003032113804" r="21.17412453350913" fill="#ffffff" fill-opacity="0.3993851998024365" />
<circle cx="1299.5322019546165" cy="95.69029801647378" r="88.47256963903975" fill="#ffffff" fill-opacity="0.4195928531958776" />
<circle cx="46.47321953253947" cy="411.21710592191295" r="80.46196759365529" fill="#ffffff" fill-opacity="0.5232468636282948" />
<circle cx="938.9317649450945" cy="1182.8263327322566" r="80.57693535708009" fill="#ffffff" fill-opacity="0.4260824569242925" />
<circle cx="1153.8598133389778" cy="1628.640388323124" r="86.91658697627011" fill="#ffffff" fill-opacity="0.5814665803783174" />
<circle cx="689.6208160529523" cy="1555.502274878829" r="55.82930616930633" fill="#ffffff" fill-opacity="0.23650840901542006" />
<circle cx="944.305583472141" cy="416.9879037824262" r="53.333852558269" fill="#ffffff" fill-opacity="0.5292194480569355" />
<circle cx="237.22489104323108" cy="1010.479514286119" r="87.8597297584892" fill="#ffffff" fill-opacity="0.3796751836435678" />
<circle cx="183.0419017749816" cy="1903.0922462869428" r="34.5686117716133" fill="#ffffff" fill-opacity="0.38382028181536354" />
<circle cx="494.60956501316457" cy="351.90689850662136" r="85.36150825853392" fill="#ffffff" fill-opacity="0.36969440798564024" />
<circle cx="1748.8168821592128" cy="196.25003340041292" r="67.39479487502668" fill="#ffffff" fill-opacity="0.3401751774150492" />
<circle cx="185.4326379754281" cy="98.56090122023132" r="53.36182184108666" fill="#ffffff" fill-opacity="0.40400926572564244" />
<circle cx="925.0801569290452" cy="1282.0473404873753" r="25.19901166906978" fill="#ffffff" fill-opacity="0.4502125237049657" />
<circle cx="1444.2470624976258" cy="1769.6597362743212" r="32.33620752127338" fill="#ffffff" fill-opacity="0.4351419601622719" />
<circle cx="1685.3147105665876" cy="1192.2545178828657" r="26.56510808063728" fill="#ffffff" fill-opacity="0.2655027254359782" />
<circle cx="315.4273721201457" cy="1648.046178802279" r="36.602722985598994" fill="#ffffff" fill-opacity="0.2878531519303841" />
<circle cx="1438.2306459349518" cy="1595.667619283671" r="72.05727289376935" fill="#ffffff" fill-opacity="0.33016491519563984" />
<circle cx="378.81601153707066" cy="729.5890085157606" r="57.065858673636484" fill="#ffffff" fill-opacity="0.30642844641399924" />
<circle cx="1956.0804219625059" cy="1815.3776292749792" r="69.63363337989608" fill="#ffffff" fill-opacity="0.2551704467267403" />
<circle cx="1535.8858604115503" cy="1519.6998802736491" r="74.13212579375131" fill="#ffffff" fill-opacity="0.34685755042499133" />
<circle cx="1333.8029625856927" cy="1485.528330302973" r="43.622317278154966" fill="#ffffff" fill-opacity="0.5343169359308838" />
<circle cx="239.41866627392616" cy="1329.5277159999432" r="79.7009603498641" fill="#ffffff" fill-opacity="0.5392105689685179" />
<circle cx="84.02137939302668" cy="408.2147761986323" r="77.07755953606879" fill="#ffffff" fill-opacity="0.41936432453792793" />
<circle cx="647.6135624231694" cy="1166.5364245120688" r="81.86089643277298" fill="#ffffff" fill-opacity="0.13118315323299504" />
<circle cx="778.2999366624872" cy="1359.5826052426542" r="32.98495784703475" fill="#ffffff" fill-opacity="0.49322222370499924" />
<circle cx="1135.32354081376" cy="1739.6203341701455" r="67.45911568971626" fill="#ffffff" fill-opacity="0.1834405580080106" />

    </svg>