<svg xmlns="http://www.w3.org/2000/svg" viewBox="0 0 2000 2000">
       <defs>
         <radialGradient id="bokehGrad39">
             <stop offset="0%" stop-color="#ffffff" stop-opacity="1"/>
             <stop offset="100%" stop-color="#ffffff" stop-opacity="0"/>
         </radialGradient>
       </defs>
       <circle cx="593.5208336080373" cy="1090.3139493710992" r="43.08472311712905" fill="#ffffff" fill-opacity="0.14563122732805114" />
<circle cx="248.3428430658312" cy="746.878228197542" r="26.897635097073326" fill="#ffffff" fill-opacity="0.3104105358465793" />
<circle cx="905.2150682195542" cy="1975.98502462608" r="21.36455220848199" fill="#ffffff" fill-opacity="0.3313371707582361" />
<circle cx="1049.8115609373806" cy="128.26702043320083" r="19.24537225141676" fill="#ffffff" fill-opacity="0.4196418691285225" />
<circle cx="1282.713914357164" cy="1179.5827313160833" r="21.163283043355516" fill="#ffffff" fill-opacity="0.45231196907080307" />
<circle cx="685.5003241397579" cy="1102.8247912960387" r="76.96654367692996" fill="#ffffff" fill-opacity="0.283779658163819" />
<circle cx="956.8638672659487" cy="1130.885292434281" r="65.2090106184319" fill="#ffffff" fill-opacity="0.18584326775630236" />
<circle cx="1014.6377333711198" cy="1489.7163105318218" r="80.4316508049875" fill="#ffffff" fill-opacity="0.1018779261086726" />
<circle cx="672.0201569802955" cy="622.9047746544182" r="72.68748108851426" fill="#ffffff" fill-opacity="0.4640035534009964" />
<circle cx="156.66422880375342" cy="1696.4648882519023" r="15.189322147508175" fill="#ffffff" fill-opacity="0.37427275614517663" />
<circle cx="1052.7796989458602" cy="111.30643317042299" r="48.033894944701174" fill="#ffffff" fill-opacity="0.400153191702982" />
<circle cx="1110.0119185152662" cy="1954.2927570845895" r="25.072338731537034" fill="#ffffff" fill-opacity="0.4713647993853425" />
<circle cx="1477.6883602477133" cy="544.5540609819328" r="86.41760871252964" fill="#ffffff" fill-opacity="0.3064186838882219" />
<circle cx="1532.9893465324683" cy="1029.148860064135" r="35.27669993714376" fill="#ffffff" fill-opacity="0.5937985054082631" />
<circle cx="1202.37713105843" cy="108.80456198780087" r="59.51016464805471" fill="#ffffff" fill-opacity="0.46796404046477524" />
<circle cx="1567.5420562559552" cy="207.19013947361043" r="60.14762350714874" fill="#ffffff" fill-opacity="0.47689939002070925" />
<circle cx="1477.397409833228" cy="190.89851300232885" r="33.912591112514356" fill="#ffffff" fill-opacity="0.37190469947283" />
<circle cx="1860.396185494036" cy="1339.5092025288413" r="18.518098521506055" fill="#ffffff" fill-opacity="0.31677093924864186" />
<circle cx="246.51561137385247" cy="1332.154002002289" r="14.305417269853669" fill="#ffffff" fill-opacity="0.11325545495979747" />
<circle cx="1426.8457271880493" cy="1517.2868840078133" r="43.34693067261574" fill="#ffffff" fill-opacity="0.5688029495347272" />
<circle cx="1110.508937935659" cy="1216.0470239051956" r="22.183773051763964" fill="#ffffff" fill-opacity="0.435410421453315" />
<circle cx="394.6654198306836" cy="643.2933317616449" r="64.20122912657408" fill="#ffffff" fill-opacity="0.2921968230173354" />
<circle cx="339.86947367718255" cy="664.0877992894074" r="68.89555703717697" fill="#ffffff" fill-opacity="0.19893255583377187" />
<circle cx="1489.7263501749364" cy="1211.2956261404663" r="50.076204747107305" fill="#ffffff" fill-opacity="0.24815588689706689" />
<circle cx="1623.6900602181752" cy="414.1258091027253" r="85.42793316911062" fill="#ffffff" fill-opacity="0.5379901374021506" />
<circle cx="1282.3688287537536" cy="28.556652145364623" r="75.1122996153906" fill="#ffffff" fill-opacity="0.13220217011484356" />
<circle cx="406.62525982441736" cy="1320.8073502196846" r="86.67096526433427" fill="#ffffff" fill-opacity="0.3897407878337086" />
<circle cx="495.9302828452983" cy="913.8760267376973" r="73.85584383589492" fill="#ffffff" fill-opacity="0.34495731428397025" />
<circle cx="1982.3170420766958" cy="82.30389130477977" r="72.64693495997244" fill="#ffffff" fill-opacity="0.16972878455751853" />
<circle cx="1882.0145383307986" cy="1903.1005211218446" r="63.32853950031372" fill="#ffffff" fill-opacity="0.5537910040026772" />
<circle cx="123.10392892700727" cy="1048.8527732310465" r="63.19092883602422" fill="#ffffff" fill-opacity="0.5391251086816334" />
<circle cx="130.26222056680757" cy="1320.3369020260943" r="52.39506952565791" fill="#ffffff" fill-opacity="0.37196363489565887" />
<circle cx="976.5516374444834" cy="1470.0420609855307" r="37.13099084854952" fill="#ffffff" fill-opacity="0.24740882104046294" />
<circle cx="1070.5419971457886" cy="1599.732651123381" r="68.63039964310252" fill="#ffffff" fill-opacity="0.55283893134975" />
<circle cx="521.6625020893413" cy="1478.7395227188495" r="68.28767079972602" fill="#ffffff" fill-opacity="0.27632522376275903" />
<circle cx="1113.4835316511071" cy="1979.0456682125132" r="24.499190959975223" fill="#ffffff" fill-opacity="0.2809158659503197" />
<circle cx="1847.454218884734" cy="1925.9994685385063" r="82.93538047392023" fill="#ffffff" fill-opacity="0.17230760038328594" />
<circle cx="1230.757551181242" cy="1021.5550012034491" r="18.044071456914345" fill="#ffffff" fill-opacity="0.5623225014166834" />
<circle cx="1529.3536696466701" cy="1943.6952692895295" r="40.44574120662605" fill="#ffffff" fill-opacity="0.20171602240230205" />
<circle cx="1814.7227141954281" cy="861.8089427014484" r="41.972416649893354" fill="#ffffff" fill-opacity="0.5479189471655097" />

    </svg>