<svg xmlns="http://www.w3.org/2000/svg" viewBox="0 0 1000 1000"><circle cx="69.10883215466181%" cy="77.15069761726177%" r="2.5564715097957857" fill="#ffffff" opacity="0.23395840461719503" /><circle cx="55.2658632679686%" cy="44.1808455675036%" r="2.750531100505187" fill="#ffffff" opacity="0.7054971639289442" /><circle cx="15.015384640263685%" cy="85.36324702916865%" r="5.49512822046756" fill="#ffffff" opacity="0.7181954749444532" /><circle cx="64.92474845690158%" cy="15.34942818808388%" r="4.997755644181132" fill="#ffffff" opacity="0.35726112300585733" /><circle cx="98.37389025270774%" cy="6.633194172939261%" r="4.07938643959409" fill="#ffffff" opacity="0.5443902750841773" /><circle cx="4.2966617787721155%" cy="31.412515435212374%" r="5.967235877078614" fill="#ffffff" opacity="0.3962274069541103" /><circle cx="29.566644408429177%" cy="29.540816861545604%" r="2.2360687539100312" fill="#ffffff" opacity="0.6927730504610246" /><circle cx="63.92076604666344%" cy="64.33859864048415%" r="2.717554649305516" fill="#ffffff" opacity="0.5194538119470026" /><circle cx="74.27648434041782%" cy="88.15868905630886%" r="2.1057259315740233" fill="#ffffff" opacity="0.7087278778839115" /><circle cx="60.39810503507367%" cy="49.508860575979966%" r="2.0151791066774423" fill="#ffffff" opacity="0.23792660936910992" /><circle cx="82.1220011882083%" cy="84.60440759151334%" r="4.912512631706695" fill="#ffffff" opacity="0.44846976053463017" /><circle cx="76.9776831128961%" cy="16.184157435369105%" r="5.0546723287688256" fill="#ffffff" opacity="0.4322762633794134" /><circle cx="96.83462788832016%" cy="45.52088829069748%" r="4.157528418070138" fill="#ffffff" opacity="0.2904091723427444" /><circle cx="86.64136460483508%" cy="31.053217692746404%" r="2.779741591462923" fill="#ffffff" opacity="0.5620100899395908" /><circle cx="91.22294495280549%" cy="63.68239898950291%" r="5.532902077961328" fill="#ffffff" opacity="0.6325711470711399" /><circle cx="3.6787996407122825%" cy="62.200312937533155%" r="5.836771674196178" fill="#ffffff" opacity="0.6116003348969441" /><circle cx="94.66384240783529%" cy="56.26646046325276%" r="3.628926295992921" fill="#ffffff" opacity="0.4171490414787583" /><circle cx="43.78990256157045%" cy="37.98510197114886%" r="4.162318518884879" fill="#ffffff" opacity="0.4955306231842359" /><circle cx="71.55757264031077%" cy="67.34606499660872%" r="4.024874498831791" fill="#ffffff" opacity="0.4769790190821776" /><circle cx="84.25166756308187%" cy="75.8999632583814%" r="3.3105732314471874" fill="#ffffff" opacity="0.21881234170921454" /></svg>