<svg xmlns="http://www.w3.org/2000/svg" viewBox="0 0 1000 1000"><circle cx="8.97380229044481%" cy="71.49997101942519%" r="4.300716017937363" fill="#ffffff" opacity="0.5089536182290325" /><circle cx="33.426037686338326%" cy="79.91379624432594%" r="2.176215444233354" fill="#ffffff" opacity="0.6964211758546703" /><circle cx="87.56500746303931%" cy="82.28417491794482%" r="5.897072695012904" fill="#ffffff" opacity="0.7686585556972414" /><circle cx="23.91296881225%" cy="79.34292575982771%" r="2.7369512785515706" fill="#ffffff" opacity="0.3641197657760057" /><circle cx="44.88681684111261%" cy="56.559880270703154%" r="5.008093898468305" fill="#ffffff" opacity="0.4446885027440349" /><circle cx="83.60148067137816%" cy="68.17848761178998%" r="5.328276003813753" fill="#ffffff" opacity="0.6695970560915638" /><circle cx="14.053526457596533%" cy="85.04984612166783%" r="5.606897884218062" fill="#ffffff" opacity="0.7883504701080641" /><circle cx="14.113401426258509%" cy="97.82516472935345%" r="3.908674546344591" fill="#ffffff" opacity="0.27983116869179564" /><circle cx="52.236293143090265%" cy="96.4989580563267%" r="3.2702794745302475" fill="#ffffff" opacity="0.5919141535038555" /><circle cx="14.658711291480808%" cy="27.866313136467713%" r="5.120844195444651" fill="#ffffff" opacity="0.28525280785643103" /><circle cx="93.77184006919624%" cy="15.960085230883081%" r="5.793491918806237" fill="#ffffff" opacity="0.20495671109893504" /><circle cx="87.91420542892871%" cy="66.33909096737987%" r="2.8634359829458176" fill="#ffffff" opacity="0.28887808792665204" /><circle cx="39.88695688113511%" cy="96.87779825007897%" r="5.14852492438979" fill="#ffffff" opacity="0.5543811548597506" /><circle cx="5.43190628909842%" cy="4.768247477593713%" r="5.869847279919741" fill="#ffffff" opacity="0.5910787604551824" /><circle cx="10.421625331658868%" cy="10.272045723545887%" r="2.742254345496404" fill="#ffffff" opacity="0.5671082016293924" /><circle cx="2.569385882929831%" cy="34.711644189710455%" r="2.3209287128808933" fill="#ffffff" opacity="0.44750217063643505" /><circle cx="56.89064174369604%" cy="70.75727344946414%" r="5.50930536556378" fill="#ffffff" opacity="0.6772013629207271" /><circle cx="65.8788861541538%" cy="0.6893204056831914%" r="4.994385284851585" fill="#ffffff" opacity="0.7398096092634971" /><circle cx="2.080361389169305%" cy="98.37316390319282%" r="3.608384416271712" fill="#ffffff" opacity="0.23617095267312876" /><circle cx="51.745688075818244%" cy="54.51836588467055%" r="2.825277438798209" fill="#ffffff" opacity="0.22332525589544064" /></svg>