<svg xmlns="http://www.w3.org/2000/svg" viewBox="0 0 1000 1000"><circle cx="95.71594814459208%" cy="13.421450524259203%" r="2.3075174186210683" fill="#ffffff" opacity="0.4629747336102737" /><circle cx="95.09576041823775%" cy="87.76418436014876%" r="4.738615387306006" fill="#ffffff" opacity="0.23784220511127868" /><circle cx="8.713229428038805%" cy="97.98283561779694%" r="5.192361892838238" fill="#ffffff" opacity="0.7551602496619756" /><circle cx="6.552793846553506%" cy="84.74620752586303%" r="2.6576070229305557" fill="#ffffff" opacity="0.6046729112874387" /><circle cx="90.31250931081928%" cy="90.85282846632253%" r="3.240485311968795" fill="#ffffff" opacity="0.7660581353473128" /><circle cx="36.68546541790124%" cy="73.24890009672018%" r="2.409574978695759" fill="#ffffff" opacity="0.5503377823484246" /><circle cx="35.790548698370884%" cy="43.71521030786872%" r="2.660089072367525" fill="#ffffff" opacity="0.5716782705656649" /><circle cx="95.14187906092918%" cy="22.118691615924867%" r="5.646613185162207" fill="#ffffff" opacity="0.21917041665310932" /><circle cx="61.376422471972816%" cy="69.49503593391721%" r="5.043207135430385" fill="#ffffff" opacity="0.3536962412444623" /><circle cx="73.62304027947494%" cy="17.80926960003013%" r="3.607967359990789" fill="#ffffff" opacity="0.5138630013682095" /><circle cx="43.30688183530553%" cy="49.50960378796777%" r="3.7430074213653732" fill="#ffffff" opacity="0.7483198384065362" /><circle cx="45.72627901275168%" cy="63.067699499382066%" r="4.959924416763341" fill="#ffffff" opacity="0.3733788015003815" /><circle cx="58.718769381702096%" cy="29.804773064970448%" r="5.097432188930178" fill="#ffffff" opacity="0.3151758240527416" /><circle cx="77.51170627133823%" cy="43.109471774020626%" r="3.2561497545593348" fill="#ffffff" opacity="0.24020217781627018" /><circle cx="36.380947957759126%" cy="66.78167464917219%" r="4.164973969294886" fill="#ffffff" opacity="0.6935558520987009" /><circle cx="33.96310875717121%" cy="33.40601706364657%" r="5.289278898311229" fill="#ffffff" opacity="0.7343623681855724" /><circle cx="75.50951168830412%" cy="17.05025476792934%" r="5.237059663518686" fill="#ffffff" opacity="0.7440516268864807" /><circle cx="13.33944821621592%" cy="95.95867691710495%" r="5.641954538565129" fill="#ffffff" opacity="0.6800834284360481" /><circle cx="98.39309296273106%" cy="21.331632215323083%" r="3.73982173600485" fill="#ffffff" opacity="0.2695831728487571" /><circle cx="8.710949339294737%" cy="83.44473682278279%" r="5.597125600832182" fill="#ffffff" opacity="0.7437941926565985" /></svg>