<svg xmlns="http://www.w3.org/2000/svg" viewBox="0 0 1000 1000"><circle cx="56.37980519526582%" cy="68.95060972134078%" r="4.893264103660968" fill="#ffffff" opacity="0.5045795344825325" /><circle cx="77.57221452387566%" cy="24.060600762088026%" r="2.149409745837698" fill="#ffffff" opacity="0.31274089926517834" /><circle cx="93.5950259706818%" cy="22.157632150885973%" r="4.088028584617841" fill="#ffffff" opacity="0.7284267445357935" /><circle cx="3.2237103479094587%" cy="47.10313759916136%" r="5.919563073774628" fill="#ffffff" opacity="0.5107281227203933" /><circle cx="88.47975268945102%" cy="60.917293927043644%" r="4.9771098046921285" fill="#ffffff" opacity="0.7444134570276142" /><circle cx="14.475970892513356%" cy="23.200249212534786%" r="5.847217992549471" fill="#ffffff" opacity="0.5113689389610879" /><circle cx="49.06733108180536%" cy="73.9150913660614%" r="3.6871541354198523" fill="#ffffff" opacity="0.7460262472447121" /><circle cx="98.33151760505275%" cy="3.558481905448463%" r="5.402646622402761" fill="#ffffff" opacity="0.2709219556121026" /><circle cx="95.23715024272008%" cy="51.52384556910463%" r="3.2647667543059455" fill="#ffffff" opacity="0.517011737543801" /><circle cx="88.56213339816851%" cy="66.51875747843377%" r="4.87288093413225" fill="#ffffff" opacity="0.25554991052138076" /><circle cx="74.31057832776695%" cy="51.07925139832231%" r="5.943334461429336" fill="#ffffff" opacity="0.2452468940494945" /><circle cx="9.03682672425613%" cy="86.1600976898605%" r="2.6569861802260113" fill="#ffffff" opacity="0.29989417977910143" /><circle cx="86.18795705100943%" cy="51.478892096650775%" r="5.737056583681568" fill="#ffffff" opacity="0.468622597630943" /><circle cx="7.486946071324862%" cy="71.18658831068552%" r="2.6288130528435274" fill="#ffffff" opacity="0.6313745366578414" /><circle cx="78.6359947868347%" cy="87.0017372061207%" r="2.2447371936748954" fill="#ffffff" opacity="0.3688960980032967" /><circle cx="40.62258155763239%" cy="61.882337257473765%" r="2.51424829938567" fill="#ffffff" opacity="0.6145735303992164" /><circle cx="60.3376274225607%" cy="92.83987019430164%" r="4.488947824746209" fill="#ffffff" opacity="0.7726782698317751" /><circle cx="24.000827522159618%" cy="92.30455334368447%" r="4.792830175722273" fill="#ffffff" opacity="0.7131911646651594" /><circle cx="68.90576892432308%" cy="3.2673166506903994%" r="4.777175921061299" fill="#ffffff" opacity="0.7047091554994958" /><circle cx="50.745700626147716%" cy="52.801892979748146%" r="3.9035274965566433" fill="#ffffff" opacity="0.34323402155845484" /></svg>