<svg xmlns="http://www.w3.org/2000/svg" viewBox="0 0 1000 1000"><circle cx="31.158936538108872%" cy="71.74427236655092%" r="5.857893494028974" fill="#ffffff" opacity="0.5292417861159603" /><circle cx="35.57479537779547%" cy="47.80584187425711%" r="3.378547417540497" fill="#ffffff" opacity="0.7340133492374368" /><circle cx="24.309438739387936%" cy="59.102467199792045%" r="5.162810033399346" fill="#ffffff" opacity="0.364860017814326" /><circle cx="1.3932984836042328%" cy="36.784623803787774%" r="3.4523682618274645" fill="#ffffff" opacity="0.6943165168692549" /><circle cx="32.990418115479635%" cy="33.2620957740722%" r="2.2585277889849222" fill="#ffffff" opacity="0.5410882112106166" /><circle cx="78.03910108261906%" cy="15.924805333640379%" r="3.5888750752463046" fill="#ffffff" opacity="0.531702262428127" /><circle cx="52.55859413776025%" cy="89.92339285291786%" r="2.9030119654653337" fill="#ffffff" opacity="0.778246223540848" /><circle cx="10.458205161670818%" cy="97.6252208278026%" r="5.54925870902088" fill="#ffffff" opacity="0.2508342309355047" /><circle cx="74.4856868044634%" cy="66.22910511600335%" r="5.038737694498153" fill="#ffffff" opacity="0.581509241056716" /><circle cx="55.28125675509271%" cy="34.35183133463171%" r="2.120049413026258" fill="#ffffff" opacity="0.26813342347148816" /><circle cx="95.29737128341911%" cy="48.96009656111113%" r="4.287836605302957" fill="#ffffff" opacity="0.7168982411868801" /><circle cx="44.828489242731976%" cy="75.34099140156198%" r="5.16797040564357" fill="#ffffff" opacity="0.5528730353053484" /><circle cx="10.9846979528607%" cy="37.74158852463438%" r="3.63680747944429" fill="#ffffff" opacity="0.5256950266648863" /><circle cx="84.59171330206799%" cy="8.20772980728105%" r="5.456490070983082" fill="#ffffff" opacity="0.5010116064043192" /><circle cx="1.1734529559323192%" cy="90.30641784193088%" r="2.366014456860618" fill="#ffffff" opacity="0.34927764980518783" /><circle cx="14.421773525599235%" cy="44.412474842153635%" r="2.76277799444633" fill="#ffffff" opacity="0.7808239016763643" /><circle cx="33.17288849146055%" cy="90.89123362563308%" r="4.249556637796326" fill="#ffffff" opacity="0.3755727657347697" /><circle cx="54.82799156124415%" cy="71.42732666977119%" r="3.493386933734366" fill="#ffffff" opacity="0.6428313733242484" /><circle cx="97.75321601712633%" cy="53.10290759640868%" r="4.4601697339484385" fill="#ffffff" opacity="0.7523908573695826" /><circle cx="60.65379517242078%" cy="70.765909906944%" r="3.374961602621578" fill="#ffffff" opacity="0.73155932429344" /></svg>